<mxfile host="app.diagrams.net" agent="Mozilla/5.0 (Windows NT 10.0; Win64; x64) AppleWebKit/537.36 (KHTML, like Gecko) Chrome/138.0.0.0 Safari/537.36" version="28.0.6">
  <diagram name="Page-1" id="mlALSfHTEJ7hedccqHrn">
    <mxGraphModel dx="7191" dy="6012" grid="1" gridSize="10" guides="1" tooltips="1" connect="1" arrows="1" fold="1" page="1" pageScale="1" pageWidth="2339" pageHeight="3300" math="0" shadow="0">
      <root>
        <mxCell id="0" />
        <mxCell id="1" parent="0" />
        <mxCell id="2ISQEb1QJit-nx3YyFa4-96" style="edgeStyle=orthogonalEdgeStyle;rounded=0;orthogonalLoop=1;jettySize=auto;html=1;exitX=0.5;exitY=1;exitDx=0;exitDy=0;entryX=0.5;entryY=0;entryDx=0;entryDy=0;" parent="1" source="xvVvHs3m2Gexg3es9if6-1" edge="1">
          <mxGeometry relative="1" as="geometry">
            <mxPoint x="1151.300454545455" y="-2910" as="targetPoint" />
          </mxGeometry>
        </mxCell>
        <mxCell id="xvVvHs3m2Gexg3es9if6-1" value="เริ่มต้น" style="ellipse;whiteSpace=wrap;html=1;" parent="1" vertex="1">
          <mxGeometry x="1076.68" y="-3070" width="149.25" height="70" as="geometry" />
        </mxCell>
        <mxCell id="xvVvHs3m2Gexg3es9if6-20" value="รับข้อมูลสินค้า" style="shape=parallelogram;perimeter=parallelogramPerimeter;whiteSpace=wrap;html=1;fixedSize=1;" parent="1" vertex="1">
          <mxGeometry x="1097.94" y="-1880" width="102.06" height="50" as="geometry" />
        </mxCell>
        <mxCell id="xvVvHs3m2Gexg3es9if6-195" value="" style="edgeStyle=orthogonalEdgeStyle;rounded=0;orthogonalLoop=1;jettySize=auto;html=1;" parent="1" source="xvVvHs3m2Gexg3es9if6-32" target="xvVvHs3m2Gexg3es9if6-194" edge="1">
          <mxGeometry relative="1" as="geometry" />
        </mxCell>
        <mxCell id="xvVvHs3m2Gexg3es9if6-821" style="edgeStyle=orthogonalEdgeStyle;rounded=0;orthogonalLoop=1;jettySize=auto;html=1;exitX=0;exitY=0.5;exitDx=0;exitDy=0;entryX=1;entryY=0.5;entryDx=0;entryDy=0;" parent="1" source="xvVvHs3m2Gexg3es9if6-32" target="xvVvHs3m2Gexg3es9if6-820" edge="1">
          <mxGeometry relative="1" as="geometry" />
        </mxCell>
        <mxCell id="xvVvHs3m2Gexg3es9if6-32" value="เลือกสินค้าประเภทน้ำ" style="rhombus;whiteSpace=wrap;html=1;" parent="1" vertex="1">
          <mxGeometry x="1109.8049999999998" y="-890" width="80" height="80" as="geometry" />
        </mxCell>
        <mxCell id="xvVvHs3m2Gexg3es9if6-185" value="" style="edgeStyle=orthogonalEdgeStyle;rounded=0;orthogonalLoop=1;jettySize=auto;html=1;" parent="1" edge="1">
          <mxGeometry relative="1" as="geometry">
            <mxPoint x="1147.62" y="-910.0100000000002" as="sourcePoint" />
            <mxPoint x="1149.5133333333333" y="-890.0016666666666" as="targetPoint" />
          </mxGeometry>
        </mxCell>
        <mxCell id="xvVvHs3m2Gexg3es9if6-133" value="" style="ellipse;whiteSpace=wrap;html=1;" parent="1" vertex="1">
          <mxGeometry x="1135.32" y="-930" width="25.2" height="20" as="geometry" />
        </mxCell>
        <mxCell id="xvVvHs3m2Gexg3es9if6-205" value="" style="edgeStyle=orthogonalEdgeStyle;rounded=0;orthogonalLoop=1;jettySize=auto;html=1;entryX=0.342;entryY=-0.043;entryDx=0;entryDy=0;entryPerimeter=0;" parent="1" source="xvVvHs3m2Gexg3es9if6-194" target="xvVvHs3m2Gexg3es9if6-228" edge="1">
          <mxGeometry relative="1" as="geometry">
            <mxPoint x="1669.8" y="-780" as="targetPoint" />
          </mxGeometry>
        </mxCell>
        <mxCell id="xvVvHs3m2Gexg3es9if6-246" value="" style="edgeStyle=orthogonalEdgeStyle;rounded=0;orthogonalLoop=1;jettySize=auto;html=1;entryX=0.5;entryY=0;entryDx=0;entryDy=0;" parent="1" source="xvVvHs3m2Gexg3es9if6-194" target="xvVvHs3m2Gexg3es9if6-243" edge="1">
          <mxGeometry relative="1" as="geometry">
            <mxPoint x="1419.8000000000002" y="-770" as="targetPoint" />
          </mxGeometry>
        </mxCell>
        <mxCell id="xvVvHs3m2Gexg3es9if6-194" value="โค๊กขวดละ 10 บาท" style="rhombus;whiteSpace=wrap;html=1;" parent="1" vertex="1">
          <mxGeometry x="1359.8" y="-890" width="120" height="80" as="geometry" />
        </mxCell>
        <mxCell id="xvVvHs3m2Gexg3es9if6-380" value="" style="edgeStyle=orthogonalEdgeStyle;rounded=0;orthogonalLoop=1;jettySize=auto;html=1;" parent="1" source="xvVvHs3m2Gexg3es9if6-202" target="xvVvHs3m2Gexg3es9if6-379" edge="1">
          <mxGeometry relative="1" as="geometry" />
        </mxCell>
        <mxCell id="xvVvHs3m2Gexg3es9if6-383" value="" style="edgeStyle=orthogonalEdgeStyle;rounded=0;orthogonalLoop=1;jettySize=auto;html=1;" parent="1" source="xvVvHs3m2Gexg3es9if6-202" target="xvVvHs3m2Gexg3es9if6-382" edge="1">
          <mxGeometry relative="1" as="geometry" />
        </mxCell>
        <mxCell id="xvVvHs3m2Gexg3es9if6-202" value="มีสินค้าหรือไม่" style="rhombus;whiteSpace=wrap;html=1;" parent="1" vertex="1">
          <mxGeometry x="1359.8" y="-620" width="120" height="80" as="geometry" />
        </mxCell>
        <mxCell id="xvVvHs3m2Gexg3es9if6-215" value="" style="edgeStyle=orthogonalEdgeStyle;rounded=0;orthogonalLoop=1;jettySize=auto;html=1;" parent="1" source="xvVvHs3m2Gexg3es9if6-212" target="xvVvHs3m2Gexg3es9if6-214" edge="1">
          <mxGeometry relative="1" as="geometry" />
        </mxCell>
        <mxCell id="xvVvHs3m2Gexg3es9if6-212" value="เลือกจำนวนสินค้า" style="whiteSpace=wrap;html=1;" parent="1" vertex="1">
          <mxGeometry x="1234.6699999999998" y="-460" width="100" height="40" as="geometry" />
        </mxCell>
        <mxCell id="xvVvHs3m2Gexg3es9if6-217" value="" style="edgeStyle=orthogonalEdgeStyle;rounded=0;orthogonalLoop=1;jettySize=auto;html=1;" parent="1" source="xvVvHs3m2Gexg3es9if6-214" target="xvVvHs3m2Gexg3es9if6-216" edge="1">
          <mxGeometry relative="1" as="geometry" />
        </mxCell>
        <mxCell id="xvVvHs3m2Gexg3es9if6-214" value="จำนวนที่เลือก" style="shape=parallelogram;perimeter=parallelogramPerimeter;whiteSpace=wrap;html=1;fixedSize=1;" parent="1" vertex="1">
          <mxGeometry x="1227.8" y="-380" width="113.75" height="30" as="geometry" />
        </mxCell>
        <mxCell id="xvVvHs3m2Gexg3es9if6-225" value="" style="edgeStyle=orthogonalEdgeStyle;rounded=0;orthogonalLoop=1;jettySize=auto;html=1;" parent="1" source="xvVvHs3m2Gexg3es9if6-216" target="xvVvHs3m2Gexg3es9if6-224" edge="1">
          <mxGeometry relative="1" as="geometry" />
        </mxCell>
        <mxCell id="xvVvHs3m2Gexg3es9if6-256" value="" style="edgeStyle=orthogonalEdgeStyle;rounded=0;orthogonalLoop=1;jettySize=auto;html=1;" parent="1" source="xvVvHs3m2Gexg3es9if6-216" target="xvVvHs3m2Gexg3es9if6-255" edge="1">
          <mxGeometry relative="1" as="geometry" />
        </mxCell>
        <mxCell id="xvVvHs3m2Gexg3es9if6-216" value="จำนวนที่เลือก&amp;lt;=สินค้าคงเหลือ" style="rhombus;whiteSpace=wrap;html=1;" parent="1" vertex="1">
          <mxGeometry x="1222.8" y="-320" width="123.74" height="80" as="geometry" />
        </mxCell>
        <mxCell id="xvVvHs3m2Gexg3es9if6-254" value="" style="edgeStyle=orthogonalEdgeStyle;rounded=0;orthogonalLoop=1;jettySize=auto;html=1;" parent="1" source="xvVvHs3m2Gexg3es9if6-224" target="xvVvHs3m2Gexg3es9if6-253" edge="1">
          <mxGeometry relative="1" as="geometry" />
        </mxCell>
        <mxCell id="xvVvHs3m2Gexg3es9if6-224" value="คงเหลือไม่พอ" style="whiteSpace=wrap;html=1;" parent="1" vertex="1">
          <mxGeometry x="1382.3" y="-230" width="75.01" height="40" as="geometry" />
        </mxCell>
        <mxCell id="xvVvHs3m2Gexg3es9if6-288" style="edgeStyle=orthogonalEdgeStyle;rounded=0;orthogonalLoop=1;jettySize=auto;html=1;exitX=0.5;exitY=1;exitDx=0;exitDy=0;entryX=0.5;entryY=0;entryDx=0;entryDy=0;" parent="1" source="xvVvHs3m2Gexg3es9if6-227" target="xvVvHs3m2Gexg3es9if6-281" edge="1">
          <mxGeometry relative="1" as="geometry" />
        </mxCell>
        <mxCell id="xvVvHs3m2Gexg3es9if6-311" style="edgeStyle=orthogonalEdgeStyle;rounded=0;orthogonalLoop=1;jettySize=auto;html=1;exitX=1;exitY=0.5;exitDx=0;exitDy=0;" parent="1" source="xvVvHs3m2Gexg3es9if6-227" edge="1">
          <mxGeometry relative="1" as="geometry">
            <mxPoint x="2309.8" y="-670" as="targetPoint" />
          </mxGeometry>
        </mxCell>
        <mxCell id="xvVvHs3m2Gexg3es9if6-227" value="น้ำเขียวขวดละ 12บาท" style="rhombus;whiteSpace=wrap;html=1;" parent="1" vertex="1">
          <mxGeometry x="1865.7899999999997" y="-790" width="120" height="80" as="geometry" />
        </mxCell>
        <mxCell id="xvVvHs3m2Gexg3es9if6-266" style="edgeStyle=orthogonalEdgeStyle;rounded=0;orthogonalLoop=1;jettySize=auto;html=1;exitX=1;exitY=0.5;exitDx=0;exitDy=0;entryX=0;entryY=0.5;entryDx=0;entryDy=0;" parent="1" source="xvVvHs3m2Gexg3es9if6-228" target="xvVvHs3m2Gexg3es9if6-227" edge="1">
          <mxGeometry relative="1" as="geometry" />
        </mxCell>
        <mxCell id="xvVvHs3m2Gexg3es9if6-228" value="" style="ellipse;whiteSpace=wrap;html=1;" parent="1" vertex="1">
          <mxGeometry x="1659.8" y="-760" width="25.2" height="20" as="geometry" />
        </mxCell>
        <mxCell id="xvVvHs3m2Gexg3es9if6-236" value="" style="ellipse;whiteSpace=wrap;html=1;" parent="1" vertex="1">
          <mxGeometry x="1275.9199999999998" y="-510" width="20" height="20" as="geometry" />
        </mxCell>
        <mxCell id="xvVvHs3m2Gexg3es9if6-240" value="" style="endArrow=classic;html=1;rounded=0;exitX=0.5;exitY=1;exitDx=0;exitDy=0;" parent="1" source="xvVvHs3m2Gexg3es9if6-236" edge="1">
          <mxGeometry width="50" height="50" relative="1" as="geometry">
            <mxPoint x="1284.6699999999998" y="-465" as="sourcePoint" />
            <mxPoint x="1285.9199999999998" y="-460" as="targetPoint" />
          </mxGeometry>
        </mxCell>
        <mxCell id="xvVvHs3m2Gexg3es9if6-248" style="edgeStyle=orthogonalEdgeStyle;rounded=0;orthogonalLoop=1;jettySize=auto;html=1;exitX=0.5;exitY=1;exitDx=0;exitDy=0;entryX=0.5;entryY=0;entryDx=0;entryDy=0;" parent="1" source="xvVvHs3m2Gexg3es9if6-243" target="xvVvHs3m2Gexg3es9if6-202" edge="1">
          <mxGeometry relative="1" as="geometry" />
        </mxCell>
        <mxCell id="xvVvHs3m2Gexg3es9if6-243" value="เลือกสินค้า" style="whiteSpace=wrap;html=1;" parent="1" vertex="1">
          <mxGeometry x="1359.8" y="-720" width="120" height="60" as="geometry" />
        </mxCell>
        <mxCell id="xvVvHs3m2Gexg3es9if6-261" value="" style="edgeStyle=orthogonalEdgeStyle;rounded=0;orthogonalLoop=1;jettySize=auto;html=1;" parent="1" source="xvVvHs3m2Gexg3es9if6-253" target="xvVvHs3m2Gexg3es9if6-260" edge="1">
          <mxGeometry relative="1" as="geometry" />
        </mxCell>
        <mxCell id="xvVvHs3m2Gexg3es9if6-264" value="" style="edgeStyle=orthogonalEdgeStyle;rounded=0;orthogonalLoop=1;jettySize=auto;html=1;" parent="1" source="xvVvHs3m2Gexg3es9if6-253" target="xvVvHs3m2Gexg3es9if6-263" edge="1">
          <mxGeometry relative="1" as="geometry" />
        </mxCell>
        <mxCell id="xvVvHs3m2Gexg3es9if6-253" value="รับต่อมั้ย" style="rhombus;whiteSpace=wrap;html=1;" parent="1" vertex="1">
          <mxGeometry x="1379.81" y="-160" width="80" height="60" as="geometry" />
        </mxCell>
        <mxCell id="xvVvHs3m2Gexg3es9if6-428" style="edgeStyle=orthogonalEdgeStyle;rounded=0;orthogonalLoop=1;jettySize=auto;html=1;exitX=0.5;exitY=1;exitDx=0;exitDy=0;entryX=1;entryY=0.5;entryDx=0;entryDy=0;" parent="1" source="xvVvHs3m2Gexg3es9if6-255" target="xvVvHs3m2Gexg3es9if6-426" edge="1">
          <mxGeometry relative="1" as="geometry" />
        </mxCell>
        <mxCell id="xvVvHs3m2Gexg3es9if6-255" value="รับ" style="shape=parallelogram;perimeter=parallelogramPerimeter;whiteSpace=wrap;html=1;fixedSize=1;" parent="1" vertex="1">
          <mxGeometry x="1224.67" y="-160" width="120" height="40" as="geometry" />
        </mxCell>
        <mxCell id="xvVvHs3m2Gexg3es9if6-262" style="edgeStyle=orthogonalEdgeStyle;rounded=0;orthogonalLoop=1;jettySize=auto;html=1;exitX=0.5;exitY=0;exitDx=0;exitDy=0;entryX=1;entryY=0.5;entryDx=0;entryDy=0;" parent="1" source="xvVvHs3m2Gexg3es9if6-260" target="xvVvHs3m2Gexg3es9if6-236" edge="1">
          <mxGeometry relative="1" as="geometry" />
        </mxCell>
        <mxCell id="xvVvHs3m2Gexg3es9if6-260" value="รับ" style="whiteSpace=wrap;html=1;" parent="1" vertex="1">
          <mxGeometry x="1499.8" y="-145" width="79.99" height="30" as="geometry" />
        </mxCell>
        <mxCell id="xvVvHs3m2Gexg3es9if6-265" style="edgeStyle=orthogonalEdgeStyle;rounded=0;orthogonalLoop=1;jettySize=auto;html=1;exitX=1;exitY=0.5;exitDx=0;exitDy=0;entryX=0;entryY=0.5;entryDx=0;entryDy=0;" parent="1" source="xvVvHs3m2Gexg3es9if6-263" target="xvVvHs3m2Gexg3es9if6-228" edge="1">
          <mxGeometry relative="1" as="geometry">
            <Array as="points">
              <mxPoint x="1599.8" y="-50" />
              <mxPoint x="1599.8" y="-750" />
            </Array>
          </mxGeometry>
        </mxCell>
        <mxCell id="xvVvHs3m2Gexg3es9if6-421" style="edgeStyle=orthogonalEdgeStyle;rounded=0;orthogonalLoop=1;jettySize=auto;html=1;exitX=0.5;exitY=1;exitDx=0;exitDy=0;entryX=1;entryY=0.5;entryDx=0;entryDy=0;" parent="1" source="xvVvHs3m2Gexg3es9if6-263" target="xvVvHs3m2Gexg3es9if6-133" edge="1">
          <mxGeometry relative="1" as="geometry">
            <Array as="points">
              <mxPoint x="1419.8" y="480" />
              <mxPoint x="3559.8" y="480" />
              <mxPoint x="3559.8" y="-920" />
            </Array>
          </mxGeometry>
        </mxCell>
        <mxCell id="xvVvHs3m2Gexg3es9if6-263" value="ไม่รับ" style="whiteSpace=wrap;html=1;" parent="1" vertex="1">
          <mxGeometry x="1364.8" y="-70" width="109.99" height="40" as="geometry" />
        </mxCell>
        <mxCell id="xvVvHs3m2Gexg3es9if6-386" style="edgeStyle=orthogonalEdgeStyle;rounded=0;orthogonalLoop=1;jettySize=auto;html=1;exitX=1;exitY=0.5;exitDx=0;exitDy=0;entryX=0;entryY=0.5;entryDx=0;entryDy=0;" parent="1" source="xvVvHs3m2Gexg3es9if6-268" target="xvVvHs3m2Gexg3es9if6-385" edge="1">
          <mxGeometry relative="1" as="geometry" />
        </mxCell>
        <mxCell id="xvVvHs3m2Gexg3es9if6-389" style="edgeStyle=orthogonalEdgeStyle;rounded=0;orthogonalLoop=1;jettySize=auto;html=1;exitX=0;exitY=0.5;exitDx=0;exitDy=0;entryX=1;entryY=0.5;entryDx=0;entryDy=0;" parent="1" source="xvVvHs3m2Gexg3es9if6-268" target="xvVvHs3m2Gexg3es9if6-388" edge="1">
          <mxGeometry relative="1" as="geometry" />
        </mxCell>
        <mxCell id="xvVvHs3m2Gexg3es9if6-268" value="มีสินค้าหรือไม่" style="rhombus;whiteSpace=wrap;html=1;" parent="1" vertex="1">
          <mxGeometry x="1865.79" y="-560" width="120" height="80" as="geometry" />
        </mxCell>
        <mxCell id="xvVvHs3m2Gexg3es9if6-269" value="" style="edgeStyle=orthogonalEdgeStyle;rounded=0;orthogonalLoop=1;jettySize=auto;html=1;" parent="1" source="xvVvHs3m2Gexg3es9if6-270" target="xvVvHs3m2Gexg3es9if6-272" edge="1">
          <mxGeometry relative="1" as="geometry" />
        </mxCell>
        <mxCell id="xvVvHs3m2Gexg3es9if6-270" value="เลือกจำนวนสินค้า" style="whiteSpace=wrap;html=1;" parent="1" vertex="1">
          <mxGeometry x="1745.6699999999998" y="-400" width="100" height="40" as="geometry" />
        </mxCell>
        <mxCell id="xvVvHs3m2Gexg3es9if6-271" value="" style="edgeStyle=orthogonalEdgeStyle;rounded=0;orthogonalLoop=1;jettySize=auto;html=1;" parent="1" source="xvVvHs3m2Gexg3es9if6-272" target="xvVvHs3m2Gexg3es9if6-275" edge="1">
          <mxGeometry relative="1" as="geometry" />
        </mxCell>
        <mxCell id="xvVvHs3m2Gexg3es9if6-272" value="จำนวนที่เลือก" style="shape=parallelogram;perimeter=parallelogramPerimeter;whiteSpace=wrap;html=1;fixedSize=1;" parent="1" vertex="1">
          <mxGeometry x="1738.8" y="-320" width="113.75" height="30" as="geometry" />
        </mxCell>
        <mxCell id="xvVvHs3m2Gexg3es9if6-273" value="" style="edgeStyle=orthogonalEdgeStyle;rounded=0;orthogonalLoop=1;jettySize=auto;html=1;" parent="1" source="xvVvHs3m2Gexg3es9if6-275" target="xvVvHs3m2Gexg3es9if6-277" edge="1">
          <mxGeometry relative="1" as="geometry" />
        </mxCell>
        <mxCell id="xvVvHs3m2Gexg3es9if6-274" value="" style="edgeStyle=orthogonalEdgeStyle;rounded=0;orthogonalLoop=1;jettySize=auto;html=1;" parent="1" source="xvVvHs3m2Gexg3es9if6-275" edge="1">
          <mxGeometry relative="1" as="geometry">
            <mxPoint x="1659.8" y="-10" as="targetPoint" />
          </mxGeometry>
        </mxCell>
        <mxCell id="xvVvHs3m2Gexg3es9if6-275" value="จำนวนที่เลือก&amp;lt;=สินค้าคงเหลือ" style="rhombus;whiteSpace=wrap;html=1;" parent="1" vertex="1">
          <mxGeometry x="1733.8" y="-260" width="123.74" height="80" as="geometry" />
        </mxCell>
        <mxCell id="xvVvHs3m2Gexg3es9if6-276" value="" style="edgeStyle=orthogonalEdgeStyle;rounded=0;orthogonalLoop=1;jettySize=auto;html=1;" parent="1" source="xvVvHs3m2Gexg3es9if6-277" target="xvVvHs3m2Gexg3es9if6-284" edge="1">
          <mxGeometry relative="1" as="geometry" />
        </mxCell>
        <mxCell id="xvVvHs3m2Gexg3es9if6-277" value="คงเหลือไม่พอ" style="whiteSpace=wrap;html=1;" parent="1" vertex="1">
          <mxGeometry x="1893.3" y="-170" width="75.01" height="40" as="geometry" />
        </mxCell>
        <mxCell id="xvVvHs3m2Gexg3es9if6-278" value="" style="ellipse;whiteSpace=wrap;html=1;" parent="1" vertex="1">
          <mxGeometry x="1786.9199999999998" y="-450" width="20" height="20" as="geometry" />
        </mxCell>
        <mxCell id="xvVvHs3m2Gexg3es9if6-279" value="" style="endArrow=classic;html=1;rounded=0;exitX=0.5;exitY=1;exitDx=0;exitDy=0;" parent="1" source="xvVvHs3m2Gexg3es9if6-278" edge="1">
          <mxGeometry width="50" height="50" relative="1" as="geometry">
            <mxPoint x="1795.6699999999998" y="-405" as="sourcePoint" />
            <mxPoint x="1796.9199999999998" y="-400" as="targetPoint" />
          </mxGeometry>
        </mxCell>
        <mxCell id="xvVvHs3m2Gexg3es9if6-280" style="edgeStyle=orthogonalEdgeStyle;rounded=0;orthogonalLoop=1;jettySize=auto;html=1;exitX=0.5;exitY=1;exitDx=0;exitDy=0;entryX=0.5;entryY=0;entryDx=0;entryDy=0;" parent="1" source="xvVvHs3m2Gexg3es9if6-281" target="xvVvHs3m2Gexg3es9if6-268" edge="1">
          <mxGeometry relative="1" as="geometry" />
        </mxCell>
        <mxCell id="xvVvHs3m2Gexg3es9if6-281" value="เลือกสินค้า" style="whiteSpace=wrap;html=1;" parent="1" vertex="1">
          <mxGeometry x="1865.79" y="-660" width="120" height="60" as="geometry" />
        </mxCell>
        <mxCell id="xvVvHs3m2Gexg3es9if6-282" value="" style="edgeStyle=orthogonalEdgeStyle;rounded=0;orthogonalLoop=1;jettySize=auto;html=1;" parent="1" source="xvVvHs3m2Gexg3es9if6-284" target="xvVvHs3m2Gexg3es9if6-286" edge="1">
          <mxGeometry relative="1" as="geometry" />
        </mxCell>
        <mxCell id="xvVvHs3m2Gexg3es9if6-283" value="" style="edgeStyle=orthogonalEdgeStyle;rounded=0;orthogonalLoop=1;jettySize=auto;html=1;" parent="1" source="xvVvHs3m2Gexg3es9if6-284" target="xvVvHs3m2Gexg3es9if6-287" edge="1">
          <mxGeometry relative="1" as="geometry" />
        </mxCell>
        <mxCell id="xvVvHs3m2Gexg3es9if6-284" value="รับต่อมั้ย" style="rhombus;whiteSpace=wrap;html=1;" parent="1" vertex="1">
          <mxGeometry x="1890.8100000000002" y="-100" width="80" height="60" as="geometry" />
        </mxCell>
        <mxCell id="xvVvHs3m2Gexg3es9if6-285" style="edgeStyle=orthogonalEdgeStyle;rounded=0;orthogonalLoop=1;jettySize=auto;html=1;exitX=0.5;exitY=0;exitDx=0;exitDy=0;entryX=1;entryY=0.5;entryDx=0;entryDy=0;" parent="1" source="xvVvHs3m2Gexg3es9if6-286" target="xvVvHs3m2Gexg3es9if6-278" edge="1">
          <mxGeometry relative="1" as="geometry" />
        </mxCell>
        <mxCell id="xvVvHs3m2Gexg3es9if6-286" value="รับ" style="whiteSpace=wrap;html=1;" parent="1" vertex="1">
          <mxGeometry x="2010.8000000000002" y="-85" width="79.99" height="30" as="geometry" />
        </mxCell>
        <mxCell id="xvVvHs3m2Gexg3es9if6-315" style="edgeStyle=orthogonalEdgeStyle;rounded=0;orthogonalLoop=1;jettySize=auto;html=1;exitX=1;exitY=0.5;exitDx=0;exitDy=0;entryX=0;entryY=0.5;entryDx=0;entryDy=0;" parent="1" source="xvVvHs3m2Gexg3es9if6-287" target="xvVvHs3m2Gexg3es9if6-313" edge="1">
          <mxGeometry relative="1" as="geometry" />
        </mxCell>
        <mxCell id="xvVvHs3m2Gexg3es9if6-420" style="edgeStyle=orthogonalEdgeStyle;rounded=0;orthogonalLoop=1;jettySize=auto;html=1;exitX=0.5;exitY=1;exitDx=0;exitDy=0;entryX=1;entryY=0.5;entryDx=0;entryDy=0;" parent="1" source="xvVvHs3m2Gexg3es9if6-287" target="xvVvHs3m2Gexg3es9if6-133" edge="1">
          <mxGeometry relative="1" as="geometry">
            <Array as="points">
              <mxPoint x="1930.8" y="480" />
              <mxPoint x="3559.8" y="480" />
              <mxPoint x="3559.8" y="-920" />
            </Array>
          </mxGeometry>
        </mxCell>
        <mxCell id="xvVvHs3m2Gexg3es9if6-287" value="ไม่รับ" style="whiteSpace=wrap;html=1;" parent="1" vertex="1">
          <mxGeometry x="1875.8" y="-10" width="109.99" height="40" as="geometry" />
        </mxCell>
        <mxCell id="xvVvHs3m2Gexg3es9if6-429" style="edgeStyle=orthogonalEdgeStyle;rounded=0;orthogonalLoop=1;jettySize=auto;html=1;exitX=0.5;exitY=1;exitDx=0;exitDy=0;entryX=1;entryY=0.5;entryDx=0;entryDy=0;" parent="1" source="xvVvHs3m2Gexg3es9if6-310" target="xvVvHs3m2Gexg3es9if6-426" edge="1">
          <mxGeometry relative="1" as="geometry" />
        </mxCell>
        <mxCell id="xvVvHs3m2Gexg3es9if6-310" value="รับ" style="shape=parallelogram;perimeter=parallelogramPerimeter;whiteSpace=wrap;html=1;fixedSize=1;" parent="1" vertex="1">
          <mxGeometry x="1599.8" y="-10" width="120" height="40" as="geometry" />
        </mxCell>
        <mxCell id="xvVvHs3m2Gexg3es9if6-340" style="edgeStyle=orthogonalEdgeStyle;rounded=0;orthogonalLoop=1;jettySize=auto;html=1;exitX=0.5;exitY=1;exitDx=0;exitDy=0;" parent="1" source="xvVvHs3m2Gexg3es9if6-312" target="xvVvHs3m2Gexg3es9if6-331" edge="1">
          <mxGeometry relative="1" as="geometry" />
        </mxCell>
        <mxCell id="xvVvHs3m2Gexg3es9if6-373" style="edgeStyle=orthogonalEdgeStyle;rounded=0;orthogonalLoop=1;jettySize=auto;html=1;exitX=1;exitY=0.5;exitDx=0;exitDy=0;entryX=0.5;entryY=0;entryDx=0;entryDy=0;" parent="1" source="xvVvHs3m2Gexg3es9if6-312" target="xvVvHs3m2Gexg3es9if6-372" edge="1">
          <mxGeometry relative="1" as="geometry" />
        </mxCell>
        <mxCell id="xvVvHs3m2Gexg3es9if6-312" value="อเมริกาโน่ขวดละ30บาท" style="rhombus;whiteSpace=wrap;html=1;" parent="1" vertex="1">
          <mxGeometry x="2395.8" y="-620" width="120" height="80" as="geometry" />
        </mxCell>
        <mxCell id="xvVvHs3m2Gexg3es9if6-339" style="edgeStyle=orthogonalEdgeStyle;rounded=0;orthogonalLoop=1;jettySize=auto;html=1;exitX=1;exitY=0.5;exitDx=0;exitDy=0;entryX=0.5;entryY=0;entryDx=0;entryDy=0;" parent="1" source="xvVvHs3m2Gexg3es9if6-313" target="xvVvHs3m2Gexg3es9if6-312" edge="1">
          <mxGeometry relative="1" as="geometry" />
        </mxCell>
        <mxCell id="xvVvHs3m2Gexg3es9if6-313" value="" style="ellipse;whiteSpace=wrap;html=1;" parent="1" vertex="1">
          <mxGeometry x="2297.2000000000003" y="-670" width="25.2" height="20" as="geometry" />
        </mxCell>
        <mxCell id="xvVvHs3m2Gexg3es9if6-394" style="edgeStyle=orthogonalEdgeStyle;rounded=0;orthogonalLoop=1;jettySize=auto;html=1;exitX=1;exitY=0.5;exitDx=0;exitDy=0;entryX=0;entryY=0.5;entryDx=0;entryDy=0;" parent="1" source="xvVvHs3m2Gexg3es9if6-318" target="xvVvHs3m2Gexg3es9if6-392" edge="1">
          <mxGeometry relative="1" as="geometry" />
        </mxCell>
        <mxCell id="xvVvHs3m2Gexg3es9if6-397" style="edgeStyle=orthogonalEdgeStyle;rounded=0;orthogonalLoop=1;jettySize=auto;html=1;exitX=0;exitY=0.5;exitDx=0;exitDy=0;entryX=1;entryY=0.5;entryDx=0;entryDy=0;" parent="1" source="xvVvHs3m2Gexg3es9if6-318" target="xvVvHs3m2Gexg3es9if6-396" edge="1">
          <mxGeometry relative="1" as="geometry" />
        </mxCell>
        <mxCell id="xvVvHs3m2Gexg3es9if6-318" value="มีสินค้าหรือไม่" style="rhombus;whiteSpace=wrap;html=1;" parent="1" vertex="1">
          <mxGeometry x="2395.79" y="-395" width="120" height="80" as="geometry" />
        </mxCell>
        <mxCell id="xvVvHs3m2Gexg3es9if6-319" value="" style="edgeStyle=orthogonalEdgeStyle;rounded=0;orthogonalLoop=1;jettySize=auto;html=1;" parent="1" source="xvVvHs3m2Gexg3es9if6-320" target="xvVvHs3m2Gexg3es9if6-322" edge="1">
          <mxGeometry relative="1" as="geometry" />
        </mxCell>
        <mxCell id="xvVvHs3m2Gexg3es9if6-320" value="เลือกจำนวนสินค้า" style="whiteSpace=wrap;html=1;" parent="1" vertex="1">
          <mxGeometry x="2275.67" y="-235" width="100" height="40" as="geometry" />
        </mxCell>
        <mxCell id="xvVvHs3m2Gexg3es9if6-321" value="" style="edgeStyle=orthogonalEdgeStyle;rounded=0;orthogonalLoop=1;jettySize=auto;html=1;" parent="1" source="xvVvHs3m2Gexg3es9if6-322" target="xvVvHs3m2Gexg3es9if6-325" edge="1">
          <mxGeometry relative="1" as="geometry" />
        </mxCell>
        <mxCell id="xvVvHs3m2Gexg3es9if6-322" value="จำนวนที่เลือก" style="shape=parallelogram;perimeter=parallelogramPerimeter;whiteSpace=wrap;html=1;fixedSize=1;" parent="1" vertex="1">
          <mxGeometry x="2268.8" y="-155" width="113.75" height="30" as="geometry" />
        </mxCell>
        <mxCell id="xvVvHs3m2Gexg3es9if6-323" value="" style="edgeStyle=orthogonalEdgeStyle;rounded=0;orthogonalLoop=1;jettySize=auto;html=1;" parent="1" source="xvVvHs3m2Gexg3es9if6-325" target="xvVvHs3m2Gexg3es9if6-327" edge="1">
          <mxGeometry relative="1" as="geometry" />
        </mxCell>
        <mxCell id="xvVvHs3m2Gexg3es9if6-324" value="" style="edgeStyle=orthogonalEdgeStyle;rounded=0;orthogonalLoop=1;jettySize=auto;html=1;" parent="1" source="xvVvHs3m2Gexg3es9if6-325" edge="1">
          <mxGeometry relative="1" as="geometry">
            <mxPoint x="2189.8" y="155" as="targetPoint" />
          </mxGeometry>
        </mxCell>
        <mxCell id="xvVvHs3m2Gexg3es9if6-325" value="จำนวนที่เลือก&amp;lt;=สินค้าคงเหลือ" style="rhombus;whiteSpace=wrap;html=1;" parent="1" vertex="1">
          <mxGeometry x="2263.8" y="-95" width="123.74" height="80" as="geometry" />
        </mxCell>
        <mxCell id="xvVvHs3m2Gexg3es9if6-326" value="" style="edgeStyle=orthogonalEdgeStyle;rounded=0;orthogonalLoop=1;jettySize=auto;html=1;" parent="1" source="xvVvHs3m2Gexg3es9if6-327" target="xvVvHs3m2Gexg3es9if6-334" edge="1">
          <mxGeometry relative="1" as="geometry" />
        </mxCell>
        <mxCell id="xvVvHs3m2Gexg3es9if6-327" value="คงเหลือไม่พอ" style="whiteSpace=wrap;html=1;" parent="1" vertex="1">
          <mxGeometry x="2423.3" y="-5" width="75.01" height="40" as="geometry" />
        </mxCell>
        <mxCell id="xvVvHs3m2Gexg3es9if6-328" value="" style="ellipse;whiteSpace=wrap;html=1;" parent="1" vertex="1">
          <mxGeometry x="2316.92" y="-285" width="20" height="20" as="geometry" />
        </mxCell>
        <mxCell id="xvVvHs3m2Gexg3es9if6-329" value="" style="endArrow=classic;html=1;rounded=0;exitX=0.5;exitY=1;exitDx=0;exitDy=0;" parent="1" source="xvVvHs3m2Gexg3es9if6-328" edge="1">
          <mxGeometry width="50" height="50" relative="1" as="geometry">
            <mxPoint x="2325.67" y="-240" as="sourcePoint" />
            <mxPoint x="2326.92" y="-235" as="targetPoint" />
          </mxGeometry>
        </mxCell>
        <mxCell id="xvVvHs3m2Gexg3es9if6-330" style="edgeStyle=orthogonalEdgeStyle;rounded=0;orthogonalLoop=1;jettySize=auto;html=1;exitX=0.5;exitY=1;exitDx=0;exitDy=0;entryX=0.5;entryY=0;entryDx=0;entryDy=0;" parent="1" source="xvVvHs3m2Gexg3es9if6-331" target="xvVvHs3m2Gexg3es9if6-318" edge="1">
          <mxGeometry relative="1" as="geometry" />
        </mxCell>
        <mxCell id="xvVvHs3m2Gexg3es9if6-331" value="เลือกสินค้า" style="whiteSpace=wrap;html=1;" parent="1" vertex="1">
          <mxGeometry x="2395.79" y="-495" width="120" height="60" as="geometry" />
        </mxCell>
        <mxCell id="xvVvHs3m2Gexg3es9if6-332" value="" style="edgeStyle=orthogonalEdgeStyle;rounded=0;orthogonalLoop=1;jettySize=auto;html=1;" parent="1" source="xvVvHs3m2Gexg3es9if6-334" target="xvVvHs3m2Gexg3es9if6-336" edge="1">
          <mxGeometry relative="1" as="geometry" />
        </mxCell>
        <mxCell id="xvVvHs3m2Gexg3es9if6-333" value="" style="edgeStyle=orthogonalEdgeStyle;rounded=0;orthogonalLoop=1;jettySize=auto;html=1;" parent="1" source="xvVvHs3m2Gexg3es9if6-334" target="xvVvHs3m2Gexg3es9if6-337" edge="1">
          <mxGeometry relative="1" as="geometry" />
        </mxCell>
        <mxCell id="xvVvHs3m2Gexg3es9if6-334" value="รับต่อมั้ย" style="rhombus;whiteSpace=wrap;html=1;" parent="1" vertex="1">
          <mxGeometry x="2420.8100000000004" y="65" width="80" height="60" as="geometry" />
        </mxCell>
        <mxCell id="xvVvHs3m2Gexg3es9if6-335" style="edgeStyle=orthogonalEdgeStyle;rounded=0;orthogonalLoop=1;jettySize=auto;html=1;exitX=0.5;exitY=0;exitDx=0;exitDy=0;entryX=1;entryY=0.5;entryDx=0;entryDy=0;" parent="1" source="xvVvHs3m2Gexg3es9if6-336" target="xvVvHs3m2Gexg3es9if6-328" edge="1">
          <mxGeometry relative="1" as="geometry" />
        </mxCell>
        <mxCell id="xvVvHs3m2Gexg3es9if6-336" value="รับ" style="whiteSpace=wrap;html=1;" parent="1" vertex="1">
          <mxGeometry x="2540.8" y="80" width="79.99" height="30" as="geometry" />
        </mxCell>
        <mxCell id="xvVvHs3m2Gexg3es9if6-376" style="edgeStyle=orthogonalEdgeStyle;rounded=0;orthogonalLoop=1;jettySize=auto;html=1;exitX=1;exitY=0.5;exitDx=0;exitDy=0;entryX=0;entryY=0.5;entryDx=0;entryDy=0;" parent="1" source="xvVvHs3m2Gexg3es9if6-337" target="xvVvHs3m2Gexg3es9if6-372" edge="1">
          <mxGeometry relative="1" as="geometry">
            <Array as="points">
              <mxPoint x="2699.8" y="175" />
              <mxPoint x="2699.8" y="-490" />
            </Array>
          </mxGeometry>
        </mxCell>
        <mxCell id="xvVvHs3m2Gexg3es9if6-419" style="edgeStyle=orthogonalEdgeStyle;rounded=0;orthogonalLoop=1;jettySize=auto;html=1;exitX=0.5;exitY=1;exitDx=0;exitDy=0;entryX=1;entryY=0.5;entryDx=0;entryDy=0;" parent="1" source="xvVvHs3m2Gexg3es9if6-337" target="xvVvHs3m2Gexg3es9if6-133" edge="1">
          <mxGeometry relative="1" as="geometry">
            <Array as="points">
              <mxPoint x="2460.8" y="480" />
              <mxPoint x="3559.8" y="480" />
              <mxPoint x="3559.8" y="-920" />
            </Array>
          </mxGeometry>
        </mxCell>
        <mxCell id="xvVvHs3m2Gexg3es9if6-337" value="ไม่รับ" style="whiteSpace=wrap;html=1;" parent="1" vertex="1">
          <mxGeometry x="2405.8" y="155" width="109.99" height="40" as="geometry" />
        </mxCell>
        <mxCell id="xvVvHs3m2Gexg3es9if6-430" style="edgeStyle=orthogonalEdgeStyle;rounded=0;orthogonalLoop=1;jettySize=auto;html=1;exitX=0.5;exitY=1;exitDx=0;exitDy=0;entryX=1;entryY=0.5;entryDx=0;entryDy=0;" parent="1" source="xvVvHs3m2Gexg3es9if6-338" target="xvVvHs3m2Gexg3es9if6-426" edge="1">
          <mxGeometry relative="1" as="geometry" />
        </mxCell>
        <mxCell id="xvVvHs3m2Gexg3es9if6-338" value="รับ" style="shape=parallelogram;perimeter=parallelogramPerimeter;whiteSpace=wrap;html=1;fixedSize=1;" parent="1" vertex="1">
          <mxGeometry x="2129.8" y="155" width="120" height="40" as="geometry" />
        </mxCell>
        <mxCell id="xvVvHs3m2Gexg3es9if6-342" style="edgeStyle=orthogonalEdgeStyle;rounded=0;orthogonalLoop=1;jettySize=auto;html=1;exitX=0.5;exitY=1;exitDx=0;exitDy=0;" parent="1" source="xvVvHs3m2Gexg3es9if6-343" target="xvVvHs3m2Gexg3es9if6-360" edge="1">
          <mxGeometry relative="1" as="geometry" />
        </mxCell>
        <mxCell id="2UghleqSg66UlbZ4SKi1-5" style="edgeStyle=orthogonalEdgeStyle;rounded=0;orthogonalLoop=1;jettySize=auto;html=1;exitX=1;exitY=0.5;exitDx=0;exitDy=0;" edge="1" parent="1" source="xvVvHs3m2Gexg3es9if6-343">
          <mxGeometry relative="1" as="geometry">
            <mxPoint x="3350" y="-50" as="targetPoint" />
          </mxGeometry>
        </mxCell>
        <mxCell id="xvVvHs3m2Gexg3es9if6-343" value="ลาเต้หวานเจี๊ยบขวดละ35บาท" style="rhombus;whiteSpace=wrap;html=1;" parent="1" vertex="1">
          <mxGeometry x="3015.8" y="-435" width="120" height="80" as="geometry" />
        </mxCell>
        <mxCell id="xvVvHs3m2Gexg3es9if6-399" style="edgeStyle=orthogonalEdgeStyle;rounded=0;orthogonalLoop=1;jettySize=auto;html=1;exitX=1;exitY=0.5;exitDx=0;exitDy=0;" parent="1" source="xvVvHs3m2Gexg3es9if6-347" edge="1">
          <mxGeometry relative="1" as="geometry">
            <mxPoint x="3349.8" y="-50" as="targetPoint" />
          </mxGeometry>
        </mxCell>
        <mxCell id="xvVvHs3m2Gexg3es9if6-402" style="edgeStyle=orthogonalEdgeStyle;rounded=0;orthogonalLoop=1;jettySize=auto;html=1;exitX=0;exitY=0.5;exitDx=0;exitDy=0;entryX=1;entryY=0.5;entryDx=0;entryDy=0;" parent="1" source="xvVvHs3m2Gexg3es9if6-347" target="xvVvHs3m2Gexg3es9if6-401" edge="1">
          <mxGeometry relative="1" as="geometry" />
        </mxCell>
        <mxCell id="xvVvHs3m2Gexg3es9if6-347" value="มีสินค้าหรือไม่" style="rhombus;whiteSpace=wrap;html=1;" parent="1" vertex="1">
          <mxGeometry x="3015.79" y="-210" width="120" height="80" as="geometry" />
        </mxCell>
        <mxCell id="xvVvHs3m2Gexg3es9if6-348" value="" style="edgeStyle=orthogonalEdgeStyle;rounded=0;orthogonalLoop=1;jettySize=auto;html=1;" parent="1" source="xvVvHs3m2Gexg3es9if6-349" target="xvVvHs3m2Gexg3es9if6-351" edge="1">
          <mxGeometry relative="1" as="geometry" />
        </mxCell>
        <mxCell id="xvVvHs3m2Gexg3es9if6-349" value="เลือกจำนวนสินค้า" style="whiteSpace=wrap;html=1;" parent="1" vertex="1">
          <mxGeometry x="2895.67" y="-50" width="100" height="40" as="geometry" />
        </mxCell>
        <mxCell id="xvVvHs3m2Gexg3es9if6-350" value="" style="edgeStyle=orthogonalEdgeStyle;rounded=0;orthogonalLoop=1;jettySize=auto;html=1;" parent="1" source="xvVvHs3m2Gexg3es9if6-351" target="xvVvHs3m2Gexg3es9if6-354" edge="1">
          <mxGeometry relative="1" as="geometry" />
        </mxCell>
        <mxCell id="xvVvHs3m2Gexg3es9if6-351" value="จำนวนที่เลือก" style="shape=parallelogram;perimeter=parallelogramPerimeter;whiteSpace=wrap;html=1;fixedSize=1;" parent="1" vertex="1">
          <mxGeometry x="2888.8" y="30" width="113.75" height="30" as="geometry" />
        </mxCell>
        <mxCell id="xvVvHs3m2Gexg3es9if6-352" value="" style="edgeStyle=orthogonalEdgeStyle;rounded=0;orthogonalLoop=1;jettySize=auto;html=1;" parent="1" source="xvVvHs3m2Gexg3es9if6-354" target="xvVvHs3m2Gexg3es9if6-356" edge="1">
          <mxGeometry relative="1" as="geometry" />
        </mxCell>
        <mxCell id="xvVvHs3m2Gexg3es9if6-353" value="" style="edgeStyle=orthogonalEdgeStyle;rounded=0;orthogonalLoop=1;jettySize=auto;html=1;" parent="1" source="xvVvHs3m2Gexg3es9if6-354" edge="1">
          <mxGeometry relative="1" as="geometry">
            <mxPoint x="2809.8" y="340" as="targetPoint" />
          </mxGeometry>
        </mxCell>
        <mxCell id="xvVvHs3m2Gexg3es9if6-354" value="จำนวนที่เลือก&amp;lt;=สินค้าคงเหลือ" style="rhombus;whiteSpace=wrap;html=1;" parent="1" vertex="1">
          <mxGeometry x="2883.8" y="90" width="123.74" height="80" as="geometry" />
        </mxCell>
        <mxCell id="xvVvHs3m2Gexg3es9if6-355" value="" style="edgeStyle=orthogonalEdgeStyle;rounded=0;orthogonalLoop=1;jettySize=auto;html=1;" parent="1" source="xvVvHs3m2Gexg3es9if6-356" target="xvVvHs3m2Gexg3es9if6-363" edge="1">
          <mxGeometry relative="1" as="geometry" />
        </mxCell>
        <mxCell id="xvVvHs3m2Gexg3es9if6-356" value="คงเหลือไม่พอ" style="whiteSpace=wrap;html=1;" parent="1" vertex="1">
          <mxGeometry x="3043.3" y="180" width="75.01" height="40" as="geometry" />
        </mxCell>
        <mxCell id="xvVvHs3m2Gexg3es9if6-357" value="" style="ellipse;whiteSpace=wrap;html=1;" parent="1" vertex="1">
          <mxGeometry x="2936.92" y="-100" width="20" height="20" as="geometry" />
        </mxCell>
        <mxCell id="xvVvHs3m2Gexg3es9if6-358" value="" style="endArrow=classic;html=1;rounded=0;exitX=0.5;exitY=1;exitDx=0;exitDy=0;" parent="1" source="xvVvHs3m2Gexg3es9if6-357" edge="1">
          <mxGeometry width="50" height="50" relative="1" as="geometry">
            <mxPoint x="2945.67" y="-55" as="sourcePoint" />
            <mxPoint x="2946.92" y="-50" as="targetPoint" />
          </mxGeometry>
        </mxCell>
        <mxCell id="xvVvHs3m2Gexg3es9if6-359" style="edgeStyle=orthogonalEdgeStyle;rounded=0;orthogonalLoop=1;jettySize=auto;html=1;exitX=0.5;exitY=1;exitDx=0;exitDy=0;entryX=0.5;entryY=0;entryDx=0;entryDy=0;" parent="1" source="xvVvHs3m2Gexg3es9if6-360" target="xvVvHs3m2Gexg3es9if6-347" edge="1">
          <mxGeometry relative="1" as="geometry" />
        </mxCell>
        <mxCell id="xvVvHs3m2Gexg3es9if6-360" value="เลือกสินค้า" style="whiteSpace=wrap;html=1;" parent="1" vertex="1">
          <mxGeometry x="3015.79" y="-310" width="120" height="60" as="geometry" />
        </mxCell>
        <mxCell id="xvVvHs3m2Gexg3es9if6-361" value="" style="edgeStyle=orthogonalEdgeStyle;rounded=0;orthogonalLoop=1;jettySize=auto;html=1;" parent="1" source="xvVvHs3m2Gexg3es9if6-363" target="xvVvHs3m2Gexg3es9if6-365" edge="1">
          <mxGeometry relative="1" as="geometry" />
        </mxCell>
        <mxCell id="xvVvHs3m2Gexg3es9if6-362" value="" style="edgeStyle=orthogonalEdgeStyle;rounded=0;orthogonalLoop=1;jettySize=auto;html=1;" parent="1" source="xvVvHs3m2Gexg3es9if6-363" target="xvVvHs3m2Gexg3es9if6-366" edge="1">
          <mxGeometry relative="1" as="geometry" />
        </mxCell>
        <mxCell id="xvVvHs3m2Gexg3es9if6-363" value="รับต่อมั้ย" style="rhombus;whiteSpace=wrap;html=1;" parent="1" vertex="1">
          <mxGeometry x="3040.8100000000004" y="250" width="80" height="60" as="geometry" />
        </mxCell>
        <mxCell id="xvVvHs3m2Gexg3es9if6-364" style="edgeStyle=orthogonalEdgeStyle;rounded=0;orthogonalLoop=1;jettySize=auto;html=1;exitX=0.5;exitY=0;exitDx=0;exitDy=0;entryX=1;entryY=0.5;entryDx=0;entryDy=0;" parent="1" source="xvVvHs3m2Gexg3es9if6-365" target="xvVvHs3m2Gexg3es9if6-357" edge="1">
          <mxGeometry relative="1" as="geometry" />
        </mxCell>
        <mxCell id="xvVvHs3m2Gexg3es9if6-365" value="รับ" style="whiteSpace=wrap;html=1;" parent="1" vertex="1">
          <mxGeometry x="3160.8" y="265" width="79.99" height="30" as="geometry" />
        </mxCell>
        <mxCell id="xvVvHs3m2Gexg3es9if6-418" style="edgeStyle=orthogonalEdgeStyle;rounded=0;orthogonalLoop=1;jettySize=auto;html=1;exitX=0.5;exitY=1;exitDx=0;exitDy=0;entryX=1;entryY=0.5;entryDx=0;entryDy=0;" parent="1" source="xvVvHs3m2Gexg3es9if6-366" target="xvVvHs3m2Gexg3es9if6-133" edge="1">
          <mxGeometry relative="1" as="geometry">
            <Array as="points">
              <mxPoint x="3080.8" y="480" />
              <mxPoint x="3559.8" y="480" />
              <mxPoint x="3559.8" y="-920" />
            </Array>
          </mxGeometry>
        </mxCell>
        <mxCell id="xvVvHs3m2Gexg3es9if6-366" value="ไม่รับ" style="whiteSpace=wrap;html=1;" parent="1" vertex="1">
          <mxGeometry x="3025.8" y="340" width="109.99" height="40" as="geometry" />
        </mxCell>
        <mxCell id="xvVvHs3m2Gexg3es9if6-431" style="edgeStyle=orthogonalEdgeStyle;rounded=0;orthogonalLoop=1;jettySize=auto;html=1;exitX=0.5;exitY=1;exitDx=0;exitDy=0;entryX=1;entryY=0.5;entryDx=0;entryDy=0;" parent="1" source="xvVvHs3m2Gexg3es9if6-367" target="xvVvHs3m2Gexg3es9if6-426" edge="1">
          <mxGeometry relative="1" as="geometry" />
        </mxCell>
        <mxCell id="xvVvHs3m2Gexg3es9if6-367" value="รับ" style="shape=parallelogram;perimeter=parallelogramPerimeter;whiteSpace=wrap;html=1;fixedSize=1;" parent="1" vertex="1">
          <mxGeometry x="2749.8" y="340" width="120" height="40" as="geometry" />
        </mxCell>
        <mxCell id="xvVvHs3m2Gexg3es9if6-375" style="edgeStyle=orthogonalEdgeStyle;rounded=0;orthogonalLoop=1;jettySize=auto;html=1;exitX=1;exitY=0.5;exitDx=0;exitDy=0;entryX=0.5;entryY=0;entryDx=0;entryDy=0;" parent="1" source="xvVvHs3m2Gexg3es9if6-372" target="xvVvHs3m2Gexg3es9if6-343" edge="1">
          <mxGeometry relative="1" as="geometry" />
        </mxCell>
        <mxCell id="xvVvHs3m2Gexg3es9if6-372" value="" style="ellipse;whiteSpace=wrap;html=1;" parent="1" vertex="1">
          <mxGeometry x="2879.8" y="-500" width="25.2" height="20" as="geometry" />
        </mxCell>
        <mxCell id="xvVvHs3m2Gexg3es9if6-381" style="edgeStyle=orthogonalEdgeStyle;rounded=0;orthogonalLoop=1;jettySize=auto;html=1;exitX=1;exitY=0.5;exitDx=0;exitDy=0;entryX=0;entryY=0.5;entryDx=0;entryDy=0;" parent="1" source="xvVvHs3m2Gexg3es9if6-379" target="xvVvHs3m2Gexg3es9if6-228" edge="1">
          <mxGeometry relative="1" as="geometry">
            <Array as="points">
              <mxPoint x="1599.8" y="-580" />
              <mxPoint x="1599.8" y="-750" />
            </Array>
          </mxGeometry>
        </mxCell>
        <mxCell id="xvVvHs3m2Gexg3es9if6-379" value="ไม่มี" style="whiteSpace=wrap;html=1;" parent="1" vertex="1">
          <mxGeometry x="1529.8" y="-590" width="40" height="20" as="geometry" />
        </mxCell>
        <mxCell id="xvVvHs3m2Gexg3es9if6-384" style="edgeStyle=orthogonalEdgeStyle;rounded=0;orthogonalLoop=1;jettySize=auto;html=1;exitX=0.5;exitY=1;exitDx=0;exitDy=0;entryX=0.5;entryY=0;entryDx=0;entryDy=0;" parent="1" source="xvVvHs3m2Gexg3es9if6-382" target="xvVvHs3m2Gexg3es9if6-236" edge="1">
          <mxGeometry relative="1" as="geometry" />
        </mxCell>
        <mxCell id="xvVvHs3m2Gexg3es9if6-382" value="มี" style="whiteSpace=wrap;html=1;" parent="1" vertex="1">
          <mxGeometry x="1265.9199999999998" y="-590" width="40" height="20" as="geometry" />
        </mxCell>
        <mxCell id="xvVvHs3m2Gexg3es9if6-387" style="edgeStyle=orthogonalEdgeStyle;rounded=0;orthogonalLoop=1;jettySize=auto;html=1;exitX=1;exitY=0.5;exitDx=0;exitDy=0;entryX=0;entryY=0.5;entryDx=0;entryDy=0;" parent="1" source="xvVvHs3m2Gexg3es9if6-385" target="xvVvHs3m2Gexg3es9if6-313" edge="1">
          <mxGeometry relative="1" as="geometry">
            <Array as="points">
              <mxPoint x="2139.8" y="-520" />
              <mxPoint x="2139.8" y="-660" />
            </Array>
          </mxGeometry>
        </mxCell>
        <mxCell id="xvVvHs3m2Gexg3es9if6-385" value="ไม่มี" style="whiteSpace=wrap;html=1;" parent="1" vertex="1">
          <mxGeometry x="2029.8000000000002" y="-530" width="40" height="20" as="geometry" />
        </mxCell>
        <mxCell id="xvVvHs3m2Gexg3es9if6-391" style="edgeStyle=orthogonalEdgeStyle;rounded=0;orthogonalLoop=1;jettySize=auto;html=1;exitX=0.5;exitY=1;exitDx=0;exitDy=0;entryX=0.5;entryY=0;entryDx=0;entryDy=0;" parent="1" source="xvVvHs3m2Gexg3es9if6-388" target="xvVvHs3m2Gexg3es9if6-278" edge="1">
          <mxGeometry relative="1" as="geometry" />
        </mxCell>
        <mxCell id="xvVvHs3m2Gexg3es9if6-388" value="มี" style="whiteSpace=wrap;html=1;" parent="1" vertex="1">
          <mxGeometry x="1776.9199999999998" y="-530" width="40" height="20" as="geometry" />
        </mxCell>
        <mxCell id="xvVvHs3m2Gexg3es9if6-395" style="edgeStyle=orthogonalEdgeStyle;rounded=0;orthogonalLoop=1;jettySize=auto;html=1;exitX=1;exitY=0.5;exitDx=0;exitDy=0;entryX=0;entryY=0.5;entryDx=0;entryDy=0;" parent="1" source="xvVvHs3m2Gexg3es9if6-392" target="xvVvHs3m2Gexg3es9if6-372" edge="1">
          <mxGeometry relative="1" as="geometry">
            <Array as="points">
              <mxPoint x="2699.8" y="-355" />
              <mxPoint x="2699.8" y="-490" />
            </Array>
          </mxGeometry>
        </mxCell>
        <mxCell id="xvVvHs3m2Gexg3es9if6-392" value="ไม่มี" style="whiteSpace=wrap;html=1;" parent="1" vertex="1">
          <mxGeometry x="2569.8" y="-365" width="40" height="20" as="geometry" />
        </mxCell>
        <mxCell id="xvVvHs3m2Gexg3es9if6-398" style="edgeStyle=orthogonalEdgeStyle;rounded=0;orthogonalLoop=1;jettySize=auto;html=1;exitX=0.5;exitY=1;exitDx=0;exitDy=0;entryX=0.5;entryY=0;entryDx=0;entryDy=0;" parent="1" source="xvVvHs3m2Gexg3es9if6-396" target="xvVvHs3m2Gexg3es9if6-328" edge="1">
          <mxGeometry relative="1" as="geometry" />
        </mxCell>
        <mxCell id="xvVvHs3m2Gexg3es9if6-396" value="มี" style="whiteSpace=wrap;html=1;" parent="1" vertex="1">
          <mxGeometry x="2306.92" y="-365" width="40" height="20" as="geometry" />
        </mxCell>
        <mxCell id="xvVvHs3m2Gexg3es9if6-416" style="edgeStyle=orthogonalEdgeStyle;rounded=0;orthogonalLoop=1;jettySize=auto;html=1;exitX=0.5;exitY=1;exitDx=0;exitDy=0;entryX=1;entryY=0.5;entryDx=0;entryDy=0;" parent="1" source="xvVvHs3m2Gexg3es9if6-400" target="xvVvHs3m2Gexg3es9if6-133" edge="1">
          <mxGeometry relative="1" as="geometry">
            <Array as="points">
              <mxPoint x="3344.8" y="-20" />
              <mxPoint x="3559.8" y="-20" />
              <mxPoint x="3559.8" y="-920" />
            </Array>
          </mxGeometry>
        </mxCell>
        <mxCell id="xvVvHs3m2Gexg3es9if6-400" value="ไม่รับ" style="whiteSpace=wrap;html=1;" parent="1" vertex="1">
          <mxGeometry x="3289.8" y="-50" width="110" height="50" as="geometry" />
        </mxCell>
        <mxCell id="xvVvHs3m2Gexg3es9if6-403" style="edgeStyle=orthogonalEdgeStyle;rounded=0;orthogonalLoop=1;jettySize=auto;html=1;exitX=0.5;exitY=1;exitDx=0;exitDy=0;entryX=0.5;entryY=0;entryDx=0;entryDy=0;" parent="1" source="xvVvHs3m2Gexg3es9if6-401" target="xvVvHs3m2Gexg3es9if6-357" edge="1">
          <mxGeometry relative="1" as="geometry" />
        </mxCell>
        <mxCell id="xvVvHs3m2Gexg3es9if6-401" value="มี" style="whiteSpace=wrap;html=1;" parent="1" vertex="1">
          <mxGeometry x="2926.92" y="-180" width="40" height="20" as="geometry" />
        </mxCell>
        <mxCell id="xvVvHs3m2Gexg3es9if6-426" value="" style="ellipse;whiteSpace=wrap;html=1;" parent="1" vertex="1">
          <mxGeometry x="1124.81" y="390" width="50" height="45" as="geometry" />
        </mxCell>
        <mxCell id="xvVvHs3m2Gexg3es9if6-853" style="edgeStyle=orthogonalEdgeStyle;rounded=0;orthogonalLoop=1;jettySize=auto;html=1;exitX=0.5;exitY=1;exitDx=0;exitDy=0;entryX=0.5;entryY=0;entryDx=0;entryDy=0;" parent="1" source="xvVvHs3m2Gexg3es9if6-820" target="xvVvHs3m2Gexg3es9if6-850" edge="1">
          <mxGeometry relative="1" as="geometry">
            <mxPoint x="549.8000000000006" y="-780" as="targetPoint" />
          </mxGeometry>
        </mxCell>
        <mxCell id="xvVvHs3m2Gexg3es9if6-919" style="edgeStyle=orthogonalEdgeStyle;rounded=0;orthogonalLoop=1;jettySize=auto;html=1;exitX=0;exitY=0.5;exitDx=0;exitDy=0;entryX=0.5;entryY=0;entryDx=0;entryDy=0;" parent="1" source="xvVvHs3m2Gexg3es9if6-820" target="xvVvHs3m2Gexg3es9if6-912" edge="1">
          <mxGeometry relative="1" as="geometry" />
        </mxCell>
        <mxCell id="xvVvHs3m2Gexg3es9if6-820" value="เมล็ดทานตะวันถุงละ13บาท" style="rhombus;whiteSpace=wrap;html=1;" parent="1" vertex="1">
          <mxGeometry x="489.79999999999995" y="-890" width="120" height="80" as="geometry" />
        </mxCell>
        <mxCell id="xvVvHs3m2Gexg3es9if6-944" value="" style="edgeStyle=orthogonalEdgeStyle;rounded=0;orthogonalLoop=1;jettySize=auto;html=1;" parent="1" source="xvVvHs3m2Gexg3es9if6-850" target="xvVvHs3m2Gexg3es9if6-943" edge="1">
          <mxGeometry relative="1" as="geometry" />
        </mxCell>
        <mxCell id="xvVvHs3m2Gexg3es9if6-850" value="เลือกสินค้า" style="whiteSpace=wrap;html=1;" parent="1" vertex="1">
          <mxGeometry x="489.79999999999995" y="-720" width="120" height="60" as="geometry" />
        </mxCell>
        <mxCell id="xvVvHs3m2Gexg3es9if6-999" style="edgeStyle=orthogonalEdgeStyle;rounded=0;orthogonalLoop=1;jettySize=auto;html=1;exitX=0.5;exitY=1;exitDx=0;exitDy=0;entryX=0.5;entryY=0;entryDx=0;entryDy=0;" parent="1" source="xvVvHs3m2Gexg3es9if6-912" target="xvVvHs3m2Gexg3es9if6-969" edge="1">
          <mxGeometry relative="1" as="geometry" />
        </mxCell>
        <mxCell id="xvVvHs3m2Gexg3es9if6-912" value="" style="ellipse;whiteSpace=wrap;html=1;" parent="1" vertex="1">
          <mxGeometry x="79.80000000000001" y="-770" width="24.99" height="20" as="geometry" />
        </mxCell>
        <mxCell id="xvVvHs3m2Gexg3es9if6-965" style="edgeStyle=orthogonalEdgeStyle;rounded=0;orthogonalLoop=1;jettySize=auto;html=1;exitX=1;exitY=0.5;exitDx=0;exitDy=0;entryX=0;entryY=0.25;entryDx=0;entryDy=0;" parent="1" source="xvVvHs3m2Gexg3es9if6-943" target="xvVvHs3m2Gexg3es9if6-964" edge="1">
          <mxGeometry relative="1" as="geometry" />
        </mxCell>
        <mxCell id="xvVvHs3m2Gexg3es9if6-967" value="" style="edgeStyle=orthogonalEdgeStyle;rounded=0;orthogonalLoop=1;jettySize=auto;html=1;" parent="1" source="xvVvHs3m2Gexg3es9if6-943" target="xvVvHs3m2Gexg3es9if6-966" edge="1">
          <mxGeometry relative="1" as="geometry" />
        </mxCell>
        <mxCell id="xvVvHs3m2Gexg3es9if6-943" value="มีสินค้าหรือไม่" style="rhombus;whiteSpace=wrap;html=1;" parent="1" vertex="1">
          <mxGeometry x="494.79999999999995" y="-610" width="110" height="80" as="geometry" />
        </mxCell>
        <mxCell id="xvVvHs3m2Gexg3es9if6-945" value="" style="edgeStyle=orthogonalEdgeStyle;rounded=0;orthogonalLoop=1;jettySize=auto;html=1;" parent="1" source="xvVvHs3m2Gexg3es9if6-946" target="xvVvHs3m2Gexg3es9if6-948" edge="1">
          <mxGeometry relative="1" as="geometry" />
        </mxCell>
        <mxCell id="xvVvHs3m2Gexg3es9if6-946" value="เลือกจำนวนสินค้า" style="whiteSpace=wrap;html=1;" parent="1" vertex="1">
          <mxGeometry x="641.6699999999998" y="-485" width="100" height="40" as="geometry" />
        </mxCell>
        <mxCell id="xvVvHs3m2Gexg3es9if6-947" value="" style="edgeStyle=orthogonalEdgeStyle;rounded=0;orthogonalLoop=1;jettySize=auto;html=1;" parent="1" source="xvVvHs3m2Gexg3es9if6-948" target="xvVvHs3m2Gexg3es9if6-951" edge="1">
          <mxGeometry relative="1" as="geometry" />
        </mxCell>
        <mxCell id="xvVvHs3m2Gexg3es9if6-948" value="จำนวนที่เลือก" style="shape=parallelogram;perimeter=parallelogramPerimeter;whiteSpace=wrap;html=1;fixedSize=1;" parent="1" vertex="1">
          <mxGeometry x="634.8" y="-405" width="113.75" height="30" as="geometry" />
        </mxCell>
        <mxCell id="xvVvHs3m2Gexg3es9if6-949" value="" style="edgeStyle=orthogonalEdgeStyle;rounded=0;orthogonalLoop=1;jettySize=auto;html=1;" parent="1" source="xvVvHs3m2Gexg3es9if6-951" target="xvVvHs3m2Gexg3es9if6-953" edge="1">
          <mxGeometry relative="1" as="geometry" />
        </mxCell>
        <mxCell id="xvVvHs3m2Gexg3es9if6-950" value="" style="edgeStyle=orthogonalEdgeStyle;rounded=0;orthogonalLoop=1;jettySize=auto;html=1;" parent="1" source="xvVvHs3m2Gexg3es9if6-951" target="xvVvHs3m2Gexg3es9if6-959" edge="1">
          <mxGeometry relative="1" as="geometry" />
        </mxCell>
        <mxCell id="xvVvHs3m2Gexg3es9if6-951" value="จำนวนที่เลือก&amp;lt;=สินค้าคงเหลือ" style="rhombus;whiteSpace=wrap;html=1;" parent="1" vertex="1">
          <mxGeometry x="629.8" y="-345" width="123.74" height="80" as="geometry" />
        </mxCell>
        <mxCell id="xvVvHs3m2Gexg3es9if6-952" value="" style="edgeStyle=orthogonalEdgeStyle;rounded=0;orthogonalLoop=1;jettySize=auto;html=1;" parent="1" source="xvVvHs3m2Gexg3es9if6-953" target="xvVvHs3m2Gexg3es9if6-958" edge="1">
          <mxGeometry relative="1" as="geometry" />
        </mxCell>
        <mxCell id="xvVvHs3m2Gexg3es9if6-953" value="คงเหลือไม่พอ" style="whiteSpace=wrap;html=1;" parent="1" vertex="1">
          <mxGeometry x="789.3" y="-255" width="75.01" height="40" as="geometry" />
        </mxCell>
        <mxCell id="xvVvHs3m2Gexg3es9if6-954" value="" style="ellipse;whiteSpace=wrap;html=1;" parent="1" vertex="1">
          <mxGeometry x="682.9199999999998" y="-535" width="20" height="20" as="geometry" />
        </mxCell>
        <mxCell id="xvVvHs3m2Gexg3es9if6-955" value="" style="endArrow=classic;html=1;rounded=0;exitX=0.5;exitY=1;exitDx=0;exitDy=0;" parent="1" source="xvVvHs3m2Gexg3es9if6-954" edge="1">
          <mxGeometry width="50" height="50" relative="1" as="geometry">
            <mxPoint x="691.6699999999998" y="-490" as="sourcePoint" />
            <mxPoint x="692.9199999999998" y="-485" as="targetPoint" />
          </mxGeometry>
        </mxCell>
        <mxCell id="xvVvHs3m2Gexg3es9if6-956" value="" style="edgeStyle=orthogonalEdgeStyle;rounded=0;orthogonalLoop=1;jettySize=auto;html=1;" parent="1" source="xvVvHs3m2Gexg3es9if6-958" target="xvVvHs3m2Gexg3es9if6-961" edge="1">
          <mxGeometry relative="1" as="geometry" />
        </mxCell>
        <mxCell id="xvVvHs3m2Gexg3es9if6-957" value="" style="edgeStyle=orthogonalEdgeStyle;rounded=0;orthogonalLoop=1;jettySize=auto;html=1;" parent="1" source="xvVvHs3m2Gexg3es9if6-958" target="xvVvHs3m2Gexg3es9if6-962" edge="1">
          <mxGeometry relative="1" as="geometry" />
        </mxCell>
        <mxCell id="xvVvHs3m2Gexg3es9if6-958" value="รับต่อมั้ย" style="rhombus;whiteSpace=wrap;html=1;" parent="1" vertex="1">
          <mxGeometry x="786.81" y="-185" width="80" height="60" as="geometry" />
        </mxCell>
        <mxCell id="xvVvHs3m2Gexg3es9if6-1045" style="edgeStyle=orthogonalEdgeStyle;rounded=0;orthogonalLoop=1;jettySize=auto;html=1;exitX=0.5;exitY=1;exitDx=0;exitDy=0;entryX=0;entryY=0.5;entryDx=0;entryDy=0;" parent="1" source="xvVvHs3m2Gexg3es9if6-959" target="xvVvHs3m2Gexg3es9if6-426" edge="1">
          <mxGeometry relative="1" as="geometry" />
        </mxCell>
        <mxCell id="xvVvHs3m2Gexg3es9if6-959" value="รับ" style="shape=parallelogram;perimeter=parallelogramPerimeter;whiteSpace=wrap;html=1;fixedSize=1;" parent="1" vertex="1">
          <mxGeometry x="631.6700000000001" y="-185" width="120" height="40" as="geometry" />
        </mxCell>
        <mxCell id="xvVvHs3m2Gexg3es9if6-960" style="edgeStyle=orthogonalEdgeStyle;rounded=0;orthogonalLoop=1;jettySize=auto;html=1;exitX=0.5;exitY=0;exitDx=0;exitDy=0;entryX=1;entryY=0.5;entryDx=0;entryDy=0;" parent="1" source="xvVvHs3m2Gexg3es9if6-961" target="xvVvHs3m2Gexg3es9if6-954" edge="1">
          <mxGeometry relative="1" as="geometry" />
        </mxCell>
        <mxCell id="xvVvHs3m2Gexg3es9if6-961" value="รับ" style="whiteSpace=wrap;html=1;" parent="1" vertex="1">
          <mxGeometry x="906.8" y="-170" width="79.99" height="30" as="geometry" />
        </mxCell>
        <mxCell id="xvVvHs3m2Gexg3es9if6-962" value="ไม่รับ" style="whiteSpace=wrap;html=1;" parent="1" vertex="1">
          <mxGeometry x="771.8" y="-95" width="109.99" height="40" as="geometry" />
        </mxCell>
        <mxCell id="xvVvHs3m2Gexg3es9if6-963" style="edgeStyle=orthogonalEdgeStyle;rounded=0;orthogonalLoop=1;jettySize=auto;html=1;exitX=0.5;exitY=1;exitDx=0;exitDy=0;entryX=0.5;entryY=0;entryDx=0;entryDy=0;" parent="1" source="xvVvHs3m2Gexg3es9if6-964" target="xvVvHs3m2Gexg3es9if6-954" edge="1">
          <mxGeometry relative="1" as="geometry" />
        </mxCell>
        <mxCell id="xvVvHs3m2Gexg3es9if6-964" value="มี" style="whiteSpace=wrap;html=1;" parent="1" vertex="1">
          <mxGeometry x="672.9200000000001" y="-575" width="40" height="20" as="geometry" />
        </mxCell>
        <mxCell id="xvVvHs3m2Gexg3es9if6-998" style="edgeStyle=orthogonalEdgeStyle;rounded=0;orthogonalLoop=1;jettySize=auto;html=1;exitX=0.5;exitY=0;exitDx=0;exitDy=0;entryX=1;entryY=0.5;entryDx=0;entryDy=0;" parent="1" source="xvVvHs3m2Gexg3es9if6-966" target="xvVvHs3m2Gexg3es9if6-912" edge="1">
          <mxGeometry relative="1" as="geometry" />
        </mxCell>
        <mxCell id="xvVvHs3m2Gexg3es9if6-966" value="ไม่มี" style="whiteSpace=wrap;html=1;" parent="1" vertex="1">
          <mxGeometry x="339.8" y="-585" width="80" height="30" as="geometry" />
        </mxCell>
        <mxCell id="xvVvHs3m2Gexg3es9if6-968" style="edgeStyle=orthogonalEdgeStyle;rounded=0;orthogonalLoop=1;jettySize=auto;html=1;exitX=0.5;exitY=1;exitDx=0;exitDy=0;entryX=0.5;entryY=0;entryDx=0;entryDy=0;" parent="1" source="xvVvHs3m2Gexg3es9if6-969" target="xvVvHs3m2Gexg3es9if6-971" edge="1">
          <mxGeometry relative="1" as="geometry">
            <mxPoint x="92.28999999999996" y="-585" as="targetPoint" />
          </mxGeometry>
        </mxCell>
        <mxCell id="xvVvHs3m2Gexg3es9if6-1037" style="edgeStyle=orthogonalEdgeStyle;rounded=0;orthogonalLoop=1;jettySize=auto;html=1;exitX=0;exitY=0.5;exitDx=0;exitDy=0;entryX=0.5;entryY=0;entryDx=0;entryDy=0;" parent="1" source="xvVvHs3m2Gexg3es9if6-969" target="xvVvHs3m2Gexg3es9if6-1003" edge="1">
          <mxGeometry relative="1" as="geometry">
            <Array as="points">
              <mxPoint x="32.80000000000001" y="-663" />
              <mxPoint x="-407.20000000000005" y="-663" />
            </Array>
          </mxGeometry>
        </mxCell>
        <mxCell id="xvVvHs3m2Gexg3es9if6-969" value="ถั่วแปบถุงละ20บาท" style="rhombus;whiteSpace=wrap;html=1;" parent="1" vertex="1">
          <mxGeometry x="32.29000000000002" y="-700" width="120" height="80" as="geometry" />
        </mxCell>
        <mxCell id="xvVvHs3m2Gexg3es9if6-970" value="" style="edgeStyle=orthogonalEdgeStyle;rounded=0;orthogonalLoop=1;jettySize=auto;html=1;" parent="1" source="xvVvHs3m2Gexg3es9if6-971" target="xvVvHs3m2Gexg3es9if6-976" edge="1">
          <mxGeometry relative="1" as="geometry" />
        </mxCell>
        <mxCell id="xvVvHs3m2Gexg3es9if6-971" value="เลือกสินค้า" style="whiteSpace=wrap;html=1;" parent="1" vertex="1">
          <mxGeometry x="32.30000000000001" y="-520" width="120" height="60" as="geometry" />
        </mxCell>
        <mxCell id="xvVvHs3m2Gexg3es9if6-974" style="edgeStyle=orthogonalEdgeStyle;rounded=0;orthogonalLoop=1;jettySize=auto;html=1;exitX=1;exitY=0.5;exitDx=0;exitDy=0;entryX=0;entryY=0.25;entryDx=0;entryDy=0;" parent="1" source="xvVvHs3m2Gexg3es9if6-976" target="xvVvHs3m2Gexg3es9if6-996" edge="1">
          <mxGeometry relative="1" as="geometry" />
        </mxCell>
        <mxCell id="xvVvHs3m2Gexg3es9if6-975" value="" style="edgeStyle=orthogonalEdgeStyle;rounded=0;orthogonalLoop=1;jettySize=auto;html=1;" parent="1" source="xvVvHs3m2Gexg3es9if6-976" target="xvVvHs3m2Gexg3es9if6-997" edge="1">
          <mxGeometry relative="1" as="geometry" />
        </mxCell>
        <mxCell id="xvVvHs3m2Gexg3es9if6-976" value="มีสินค้าหรือไม่" style="rhombus;whiteSpace=wrap;html=1;" parent="1" vertex="1">
          <mxGeometry x="37.29000000000002" y="-420" width="110" height="80" as="geometry" />
        </mxCell>
        <mxCell id="xvVvHs3m2Gexg3es9if6-977" value="" style="edgeStyle=orthogonalEdgeStyle;rounded=0;orthogonalLoop=1;jettySize=auto;html=1;" parent="1" source="xvVvHs3m2Gexg3es9if6-978" target="xvVvHs3m2Gexg3es9if6-980" edge="1">
          <mxGeometry relative="1" as="geometry" />
        </mxCell>
        <mxCell id="xvVvHs3m2Gexg3es9if6-978" value="เลือกจำนวนสินค้า" style="whiteSpace=wrap;html=1;" parent="1" vertex="1">
          <mxGeometry x="171.66999999999985" y="-292.5" width="100" height="40" as="geometry" />
        </mxCell>
        <mxCell id="xvVvHs3m2Gexg3es9if6-979" value="" style="edgeStyle=orthogonalEdgeStyle;rounded=0;orthogonalLoop=1;jettySize=auto;html=1;" parent="1" source="xvVvHs3m2Gexg3es9if6-980" target="xvVvHs3m2Gexg3es9if6-983" edge="1">
          <mxGeometry relative="1" as="geometry" />
        </mxCell>
        <mxCell id="xvVvHs3m2Gexg3es9if6-980" value="จำนวนที่เลือก" style="shape=parallelogram;perimeter=parallelogramPerimeter;whiteSpace=wrap;html=1;fixedSize=1;" parent="1" vertex="1">
          <mxGeometry x="164.79999999999995" y="-212.5" width="113.75" height="30" as="geometry" />
        </mxCell>
        <mxCell id="xvVvHs3m2Gexg3es9if6-981" value="" style="edgeStyle=orthogonalEdgeStyle;rounded=0;orthogonalLoop=1;jettySize=auto;html=1;" parent="1" source="xvVvHs3m2Gexg3es9if6-983" target="xvVvHs3m2Gexg3es9if6-985" edge="1">
          <mxGeometry relative="1" as="geometry" />
        </mxCell>
        <mxCell id="xvVvHs3m2Gexg3es9if6-982" value="" style="edgeStyle=orthogonalEdgeStyle;rounded=0;orthogonalLoop=1;jettySize=auto;html=1;" parent="1" source="xvVvHs3m2Gexg3es9if6-983" target="xvVvHs3m2Gexg3es9if6-991" edge="1">
          <mxGeometry relative="1" as="geometry" />
        </mxCell>
        <mxCell id="xvVvHs3m2Gexg3es9if6-983" value="จำนวนที่เลือก&amp;lt;=สินค้าคงเหลือ" style="rhombus;whiteSpace=wrap;html=1;" parent="1" vertex="1">
          <mxGeometry x="159.79999999999995" y="-152.5" width="123.74" height="80" as="geometry" />
        </mxCell>
        <mxCell id="xvVvHs3m2Gexg3es9if6-984" value="" style="edgeStyle=orthogonalEdgeStyle;rounded=0;orthogonalLoop=1;jettySize=auto;html=1;" parent="1" source="xvVvHs3m2Gexg3es9if6-985" target="xvVvHs3m2Gexg3es9if6-990" edge="1">
          <mxGeometry relative="1" as="geometry" />
        </mxCell>
        <mxCell id="xvVvHs3m2Gexg3es9if6-985" value="คงเหลือไม่พอ" style="whiteSpace=wrap;html=1;" parent="1" vertex="1">
          <mxGeometry x="319.3" y="-62.5" width="75.01" height="40" as="geometry" />
        </mxCell>
        <mxCell id="xvVvHs3m2Gexg3es9if6-986" value="" style="ellipse;whiteSpace=wrap;html=1;" parent="1" vertex="1">
          <mxGeometry x="212.91999999999985" y="-342.5" width="20" height="20" as="geometry" />
        </mxCell>
        <mxCell id="xvVvHs3m2Gexg3es9if6-987" value="" style="endArrow=classic;html=1;rounded=0;exitX=0.5;exitY=1;exitDx=0;exitDy=0;" parent="1" source="xvVvHs3m2Gexg3es9if6-986" edge="1">
          <mxGeometry width="50" height="50" relative="1" as="geometry">
            <mxPoint x="221.6699999999999" y="-297.5" as="sourcePoint" />
            <mxPoint x="222.9199999999999" y="-292.5" as="targetPoint" />
          </mxGeometry>
        </mxCell>
        <mxCell id="xvVvHs3m2Gexg3es9if6-988" value="" style="edgeStyle=orthogonalEdgeStyle;rounded=0;orthogonalLoop=1;jettySize=auto;html=1;" parent="1" source="xvVvHs3m2Gexg3es9if6-990" target="xvVvHs3m2Gexg3es9if6-993" edge="1">
          <mxGeometry relative="1" as="geometry" />
        </mxCell>
        <mxCell id="xvVvHs3m2Gexg3es9if6-989" value="" style="edgeStyle=orthogonalEdgeStyle;rounded=0;orthogonalLoop=1;jettySize=auto;html=1;" parent="1" source="xvVvHs3m2Gexg3es9if6-990" target="xvVvHs3m2Gexg3es9if6-994" edge="1">
          <mxGeometry relative="1" as="geometry" />
        </mxCell>
        <mxCell id="xvVvHs3m2Gexg3es9if6-990" value="รับต่อมั้ย" style="rhombus;whiteSpace=wrap;html=1;" parent="1" vertex="1">
          <mxGeometry x="316.81" y="7.5" width="80" height="60" as="geometry" />
        </mxCell>
        <mxCell id="xvVvHs3m2Gexg3es9if6-1046" style="edgeStyle=orthogonalEdgeStyle;rounded=0;orthogonalLoop=1;jettySize=auto;html=1;exitX=0.5;exitY=1;exitDx=0;exitDy=0;entryX=0;entryY=0.5;entryDx=0;entryDy=0;" parent="1" source="xvVvHs3m2Gexg3es9if6-991" target="xvVvHs3m2Gexg3es9if6-426" edge="1">
          <mxGeometry relative="1" as="geometry" />
        </mxCell>
        <mxCell id="xvVvHs3m2Gexg3es9if6-991" value="รับ" style="shape=parallelogram;perimeter=parallelogramPerimeter;whiteSpace=wrap;html=1;fixedSize=1;" parent="1" vertex="1">
          <mxGeometry x="161.67000000000007" y="7.5" width="120" height="40" as="geometry" />
        </mxCell>
        <mxCell id="xvVvHs3m2Gexg3es9if6-992" style="edgeStyle=orthogonalEdgeStyle;rounded=0;orthogonalLoop=1;jettySize=auto;html=1;exitX=0.5;exitY=0;exitDx=0;exitDy=0;entryX=1;entryY=0.5;entryDx=0;entryDy=0;" parent="1" source="xvVvHs3m2Gexg3es9if6-993" target="xvVvHs3m2Gexg3es9if6-986" edge="1">
          <mxGeometry relative="1" as="geometry" />
        </mxCell>
        <mxCell id="xvVvHs3m2Gexg3es9if6-993" value="รับ" style="whiteSpace=wrap;html=1;" parent="1" vertex="1">
          <mxGeometry x="436.8" y="22.5" width="79.99" height="30" as="geometry" />
        </mxCell>
        <mxCell id="xvVvHs3m2Gexg3es9if6-1042" style="edgeStyle=orthogonalEdgeStyle;rounded=0;orthogonalLoop=1;jettySize=auto;html=1;exitX=0.5;exitY=1;exitDx=0;exitDy=0;entryX=0;entryY=0.5;entryDx=0;entryDy=0;" parent="1" source="xvVvHs3m2Gexg3es9if6-994" target="xvVvHs3m2Gexg3es9if6-133" edge="1">
          <mxGeometry relative="1" as="geometry">
            <Array as="points">
              <mxPoint x="356.8" y="480" />
              <mxPoint x="-740.2" y="480" />
              <mxPoint x="-740.2" y="-920" />
            </Array>
          </mxGeometry>
        </mxCell>
        <mxCell id="xvVvHs3m2Gexg3es9if6-994" value="ไม่รับ" style="whiteSpace=wrap;html=1;" parent="1" vertex="1">
          <mxGeometry x="301.8" y="97.5" width="109.99" height="40" as="geometry" />
        </mxCell>
        <mxCell id="xvVvHs3m2Gexg3es9if6-995" style="edgeStyle=orthogonalEdgeStyle;rounded=0;orthogonalLoop=1;jettySize=auto;html=1;exitX=0.5;exitY=1;exitDx=0;exitDy=0;entryX=0.5;entryY=0;entryDx=0;entryDy=0;" parent="1" source="xvVvHs3m2Gexg3es9if6-996" target="xvVvHs3m2Gexg3es9if6-986" edge="1">
          <mxGeometry relative="1" as="geometry" />
        </mxCell>
        <mxCell id="xvVvHs3m2Gexg3es9if6-996" value="มี" style="whiteSpace=wrap;html=1;" parent="1" vertex="1">
          <mxGeometry x="202.91999999999996" y="-385" width="40" height="20" as="geometry" />
        </mxCell>
        <mxCell id="xvVvHs3m2Gexg3es9if6-1038" style="edgeStyle=orthogonalEdgeStyle;rounded=0;orthogonalLoop=1;jettySize=auto;html=1;exitX=0;exitY=0.25;exitDx=0;exitDy=0;entryX=1;entryY=0.5;entryDx=0;entryDy=0;" parent="1" source="xvVvHs3m2Gexg3es9if6-997" target="xvVvHs3m2Gexg3es9if6-1003" edge="1">
          <mxGeometry relative="1" as="geometry" />
        </mxCell>
        <mxCell id="xvVvHs3m2Gexg3es9if6-997" value="ไม่มี" style="whiteSpace=wrap;html=1;" parent="1" vertex="1">
          <mxGeometry x="-100.20000000000005" y="-395" width="80" height="30" as="geometry" />
        </mxCell>
        <mxCell id="xvVvHs3m2Gexg3es9if6-1002" style="edgeStyle=orthogonalEdgeStyle;rounded=0;orthogonalLoop=1;jettySize=auto;html=1;exitX=0.5;exitY=1;exitDx=0;exitDy=0;entryX=0.5;entryY=0;entryDx=0;entryDy=0;" parent="1" source="xvVvHs3m2Gexg3es9if6-1003" target="xvVvHs3m2Gexg3es9if6-1008" edge="1">
          <mxGeometry relative="1" as="geometry" />
        </mxCell>
        <mxCell id="xvVvHs3m2Gexg3es9if6-1003" value="" style="ellipse;whiteSpace=wrap;html=1;" parent="1" vertex="1">
          <mxGeometry x="-420.20000000000005" y="-642.5" width="24.99" height="20" as="geometry" />
        </mxCell>
        <mxCell id="xvVvHs3m2Gexg3es9if6-1007" style="edgeStyle=orthogonalEdgeStyle;rounded=0;orthogonalLoop=1;jettySize=auto;html=1;exitX=0.5;exitY=1;exitDx=0;exitDy=0;entryX=0.5;entryY=0;entryDx=0;entryDy=0;" parent="1" source="xvVvHs3m2Gexg3es9if6-1008" target="xvVvHs3m2Gexg3es9if6-1010" edge="1">
          <mxGeometry relative="1" as="geometry">
            <mxPoint x="-407.71000000000004" y="-457.5" as="targetPoint" />
          </mxGeometry>
        </mxCell>
        <mxCell id="2UghleqSg66UlbZ4SKi1-26" style="edgeStyle=orthogonalEdgeStyle;rounded=0;orthogonalLoop=1;jettySize=auto;html=1;exitX=0;exitY=0.5;exitDx=0;exitDy=0;entryX=0.5;entryY=0;entryDx=0;entryDy=0;" edge="1" parent="1" source="xvVvHs3m2Gexg3es9if6-1008" target="xvVvHs3m2Gexg3es9if6-1036">
          <mxGeometry relative="1" as="geometry" />
        </mxCell>
        <mxCell id="xvVvHs3m2Gexg3es9if6-1008" value="จิ้นส้มหมกห่อละ15บาท" style="rhombus;whiteSpace=wrap;html=1;" parent="1" vertex="1">
          <mxGeometry x="-467.71000000000004" y="-572.5" width="120" height="80" as="geometry" />
        </mxCell>
        <mxCell id="xvVvHs3m2Gexg3es9if6-1009" value="" style="edgeStyle=orthogonalEdgeStyle;rounded=0;orthogonalLoop=1;jettySize=auto;html=1;" parent="1" source="xvVvHs3m2Gexg3es9if6-1010" target="xvVvHs3m2Gexg3es9if6-1015" edge="1">
          <mxGeometry relative="1" as="geometry" />
        </mxCell>
        <mxCell id="xvVvHs3m2Gexg3es9if6-1010" value="เลือกสินค้า" style="whiteSpace=wrap;html=1;" parent="1" vertex="1">
          <mxGeometry x="-467.70000000000005" y="-392.5" width="120" height="60" as="geometry" />
        </mxCell>
        <mxCell id="xvVvHs3m2Gexg3es9if6-1013" style="edgeStyle=orthogonalEdgeStyle;rounded=0;orthogonalLoop=1;jettySize=auto;html=1;exitX=1;exitY=0.5;exitDx=0;exitDy=0;entryX=0;entryY=0.25;entryDx=0;entryDy=0;" parent="1" source="xvVvHs3m2Gexg3es9if6-1015" target="xvVvHs3m2Gexg3es9if6-1035" edge="1">
          <mxGeometry relative="1" as="geometry" />
        </mxCell>
        <mxCell id="xvVvHs3m2Gexg3es9if6-1014" value="" style="edgeStyle=orthogonalEdgeStyle;rounded=0;orthogonalLoop=1;jettySize=auto;html=1;" parent="1" source="xvVvHs3m2Gexg3es9if6-1015" target="xvVvHs3m2Gexg3es9if6-1036" edge="1">
          <mxGeometry relative="1" as="geometry" />
        </mxCell>
        <mxCell id="xvVvHs3m2Gexg3es9if6-1015" value="มีสินค้าหรือไม่" style="rhombus;whiteSpace=wrap;html=1;" parent="1" vertex="1">
          <mxGeometry x="-462.71000000000004" y="-292.5" width="110" height="80" as="geometry" />
        </mxCell>
        <mxCell id="xvVvHs3m2Gexg3es9if6-1016" value="" style="edgeStyle=orthogonalEdgeStyle;rounded=0;orthogonalLoop=1;jettySize=auto;html=1;" parent="1" source="xvVvHs3m2Gexg3es9if6-1017" target="xvVvHs3m2Gexg3es9if6-1019" edge="1">
          <mxGeometry relative="1" as="geometry" />
        </mxCell>
        <mxCell id="xvVvHs3m2Gexg3es9if6-1017" value="เลือกจำนวนสินค้า" style="whiteSpace=wrap;html=1;" parent="1" vertex="1">
          <mxGeometry x="-328.33000000000015" y="-165" width="100" height="40" as="geometry" />
        </mxCell>
        <mxCell id="xvVvHs3m2Gexg3es9if6-1018" value="" style="edgeStyle=orthogonalEdgeStyle;rounded=0;orthogonalLoop=1;jettySize=auto;html=1;" parent="1" source="xvVvHs3m2Gexg3es9if6-1019" target="xvVvHs3m2Gexg3es9if6-1022" edge="1">
          <mxGeometry relative="1" as="geometry" />
        </mxCell>
        <mxCell id="xvVvHs3m2Gexg3es9if6-1019" value="จำนวนที่เลือก" style="shape=parallelogram;perimeter=parallelogramPerimeter;whiteSpace=wrap;html=1;fixedSize=1;" parent="1" vertex="1">
          <mxGeometry x="-335.20000000000005" y="-85" width="113.75" height="30" as="geometry" />
        </mxCell>
        <mxCell id="xvVvHs3m2Gexg3es9if6-1020" value="" style="edgeStyle=orthogonalEdgeStyle;rounded=0;orthogonalLoop=1;jettySize=auto;html=1;" parent="1" source="xvVvHs3m2Gexg3es9if6-1022" target="xvVvHs3m2Gexg3es9if6-1024" edge="1">
          <mxGeometry relative="1" as="geometry" />
        </mxCell>
        <mxCell id="xvVvHs3m2Gexg3es9if6-1021" value="" style="edgeStyle=orthogonalEdgeStyle;rounded=0;orthogonalLoop=1;jettySize=auto;html=1;" parent="1" source="xvVvHs3m2Gexg3es9if6-1022" target="xvVvHs3m2Gexg3es9if6-1030" edge="1">
          <mxGeometry relative="1" as="geometry" />
        </mxCell>
        <mxCell id="xvVvHs3m2Gexg3es9if6-1022" value="จำนวนที่เลือก&amp;lt;=สินค้าคงเหลือ" style="rhombus;whiteSpace=wrap;html=1;" parent="1" vertex="1">
          <mxGeometry x="-340.20000000000005" y="-25" width="123.74" height="80" as="geometry" />
        </mxCell>
        <mxCell id="xvVvHs3m2Gexg3es9if6-1023" value="" style="edgeStyle=orthogonalEdgeStyle;rounded=0;orthogonalLoop=1;jettySize=auto;html=1;" parent="1" source="xvVvHs3m2Gexg3es9if6-1024" target="xvVvHs3m2Gexg3es9if6-1029" edge="1">
          <mxGeometry relative="1" as="geometry" />
        </mxCell>
        <mxCell id="xvVvHs3m2Gexg3es9if6-1024" value="คงเหลือไม่พอ" style="whiteSpace=wrap;html=1;" parent="1" vertex="1">
          <mxGeometry x="-180.70000000000005" y="65" width="75.01" height="40" as="geometry" />
        </mxCell>
        <mxCell id="xvVvHs3m2Gexg3es9if6-1025" value="" style="ellipse;whiteSpace=wrap;html=1;" parent="1" vertex="1">
          <mxGeometry x="-287.08000000000015" y="-215" width="20" height="20" as="geometry" />
        </mxCell>
        <mxCell id="xvVvHs3m2Gexg3es9if6-1026" value="" style="endArrow=classic;html=1;rounded=0;exitX=0.5;exitY=1;exitDx=0;exitDy=0;" parent="1" source="xvVvHs3m2Gexg3es9if6-1025" edge="1">
          <mxGeometry width="50" height="50" relative="1" as="geometry">
            <mxPoint x="-278.33000000000015" y="-170" as="sourcePoint" />
            <mxPoint x="-277.08000000000015" y="-165" as="targetPoint" />
          </mxGeometry>
        </mxCell>
        <mxCell id="xvVvHs3m2Gexg3es9if6-1027" value="" style="edgeStyle=orthogonalEdgeStyle;rounded=0;orthogonalLoop=1;jettySize=auto;html=1;" parent="1" source="xvVvHs3m2Gexg3es9if6-1029" target="xvVvHs3m2Gexg3es9if6-1032" edge="1">
          <mxGeometry relative="1" as="geometry" />
        </mxCell>
        <mxCell id="xvVvHs3m2Gexg3es9if6-1028" value="" style="edgeStyle=orthogonalEdgeStyle;rounded=0;orthogonalLoop=1;jettySize=auto;html=1;" parent="1" source="xvVvHs3m2Gexg3es9if6-1029" target="xvVvHs3m2Gexg3es9if6-1033" edge="1">
          <mxGeometry relative="1" as="geometry" />
        </mxCell>
        <mxCell id="xvVvHs3m2Gexg3es9if6-1029" value="รับต่อมั้ย" style="rhombus;whiteSpace=wrap;html=1;" parent="1" vertex="1">
          <mxGeometry x="-183.19000000000005" y="135" width="80" height="60" as="geometry" />
        </mxCell>
        <mxCell id="xvVvHs3m2Gexg3es9if6-1047" style="edgeStyle=orthogonalEdgeStyle;rounded=0;orthogonalLoop=1;jettySize=auto;html=1;exitX=0.5;exitY=1;exitDx=0;exitDy=0;entryX=0;entryY=0.5;entryDx=0;entryDy=0;" parent="1" source="xvVvHs3m2Gexg3es9if6-1030" target="xvVvHs3m2Gexg3es9if6-426" edge="1">
          <mxGeometry relative="1" as="geometry" />
        </mxCell>
        <mxCell id="xvVvHs3m2Gexg3es9if6-1030" value="รับ" style="shape=parallelogram;perimeter=parallelogramPerimeter;whiteSpace=wrap;html=1;fixedSize=1;" parent="1" vertex="1">
          <mxGeometry x="-338.3299999999999" y="135" width="120" height="40" as="geometry" />
        </mxCell>
        <mxCell id="xvVvHs3m2Gexg3es9if6-1031" style="edgeStyle=orthogonalEdgeStyle;rounded=0;orthogonalLoop=1;jettySize=auto;html=1;exitX=0.5;exitY=0;exitDx=0;exitDy=0;entryX=1;entryY=0.5;entryDx=0;entryDy=0;" parent="1" source="xvVvHs3m2Gexg3es9if6-1032" target="xvVvHs3m2Gexg3es9if6-1025" edge="1">
          <mxGeometry relative="1" as="geometry" />
        </mxCell>
        <mxCell id="xvVvHs3m2Gexg3es9if6-1032" value="รับ" style="whiteSpace=wrap;html=1;" parent="1" vertex="1">
          <mxGeometry x="-63.19999999999999" y="150" width="79.99" height="30" as="geometry" />
        </mxCell>
        <mxCell id="xvVvHs3m2Gexg3es9if6-1043" style="edgeStyle=orthogonalEdgeStyle;rounded=0;orthogonalLoop=1;jettySize=auto;html=1;exitX=0.5;exitY=1;exitDx=0;exitDy=0;entryX=0;entryY=0.5;entryDx=0;entryDy=0;" parent="1" source="xvVvHs3m2Gexg3es9if6-1033" target="xvVvHs3m2Gexg3es9if6-133" edge="1">
          <mxGeometry relative="1" as="geometry">
            <Array as="points">
              <mxPoint x="-143.20000000000005" y="480" />
              <mxPoint x="-740.2" y="480" />
              <mxPoint x="-740.2" y="-920" />
            </Array>
          </mxGeometry>
        </mxCell>
        <mxCell id="xvVvHs3m2Gexg3es9if6-1033" value="ไม่รับ" style="whiteSpace=wrap;html=1;" parent="1" vertex="1">
          <mxGeometry x="-198.20000000000005" y="225" width="109.99" height="40" as="geometry" />
        </mxCell>
        <mxCell id="xvVvHs3m2Gexg3es9if6-1034" style="edgeStyle=orthogonalEdgeStyle;rounded=0;orthogonalLoop=1;jettySize=auto;html=1;exitX=0.5;exitY=1;exitDx=0;exitDy=0;entryX=0.5;entryY=0;entryDx=0;entryDy=0;" parent="1" source="xvVvHs3m2Gexg3es9if6-1035" target="xvVvHs3m2Gexg3es9if6-1025" edge="1">
          <mxGeometry relative="1" as="geometry" />
        </mxCell>
        <mxCell id="xvVvHs3m2Gexg3es9if6-1035" value="มี" style="whiteSpace=wrap;html=1;" parent="1" vertex="1">
          <mxGeometry x="-297.0799999999999" y="-257.5" width="40" height="20" as="geometry" />
        </mxCell>
        <mxCell id="xvVvHs3m2Gexg3es9if6-1041" value="" style="edgeStyle=orthogonalEdgeStyle;rounded=0;orthogonalLoop=1;jettySize=auto;html=1;" parent="1" source="xvVvHs3m2Gexg3es9if6-1036" target="xvVvHs3m2Gexg3es9if6-1040" edge="1">
          <mxGeometry relative="1" as="geometry" />
        </mxCell>
        <mxCell id="xvVvHs3m2Gexg3es9if6-1036" value="ไม่มี" style="whiteSpace=wrap;html=1;" parent="1" vertex="1">
          <mxGeometry x="-600.2" y="-267.5" width="80" height="30" as="geometry" />
        </mxCell>
        <mxCell id="xvVvHs3m2Gexg3es9if6-1044" style="edgeStyle=orthogonalEdgeStyle;rounded=0;orthogonalLoop=1;jettySize=auto;html=1;exitX=0.5;exitY=1;exitDx=0;exitDy=0;entryX=0;entryY=0.5;entryDx=0;entryDy=0;" parent="1" source="xvVvHs3m2Gexg3es9if6-1040" target="xvVvHs3m2Gexg3es9if6-133" edge="1">
          <mxGeometry relative="1" as="geometry">
            <Array as="points">
              <mxPoint x="-560.2" y="480" />
              <mxPoint x="-740.2" y="480" />
              <mxPoint x="-740.2" y="-920" />
            </Array>
          </mxGeometry>
        </mxCell>
        <mxCell id="xvVvHs3m2Gexg3es9if6-1040" value="ไม่รับ" style="whiteSpace=wrap;html=1;" parent="1" vertex="1">
          <mxGeometry x="-600.2" y="-157.5" width="80" height="30" as="geometry" />
        </mxCell>
        <mxCell id="2ISQEb1QJit-nx3YyFa4-1" style="edgeStyle=orthogonalEdgeStyle;rounded=0;orthogonalLoop=1;jettySize=auto;html=1;exitX=0.5;exitY=1;exitDx=0;exitDy=0;entryX=1;entryY=0.5;entryDx=0;entryDy=0;" parent="1" source="xvVvHs3m2Gexg3es9if6-263" target="xvVvHs3m2Gexg3es9if6-133" edge="1">
          <mxGeometry relative="1" as="geometry">
            <Array as="points">
              <mxPoint x="1419.8" y="480" />
              <mxPoint x="3559.8" y="480" />
              <mxPoint x="3559.8" y="-920" />
            </Array>
            <mxPoint x="1419.8" y="-30" as="sourcePoint" />
            <mxPoint x="1160.8" y="-920" as="targetPoint" />
          </mxGeometry>
        </mxCell>
        <mxCell id="2ISQEb1QJit-nx3YyFa4-59" value="โค้ก&amp;nbsp; 30กระป๋อง" style="rounded=0;whiteSpace=wrap;html=1;" parent="1" vertex="1">
          <mxGeometry x="1078.88" y="-1770" width="120" height="60" as="geometry" />
        </mxCell>
        <mxCell id="2ISQEb1QJit-nx3YyFa4-60" value="น้ำเขียว&amp;nbsp; 30 กระป๋อง" style="rounded=0;whiteSpace=wrap;html=1;" parent="1" vertex="1">
          <mxGeometry x="1080.88" y="-1660" width="120" height="60" as="geometry" />
        </mxCell>
        <mxCell id="2ISQEb1QJit-nx3YyFa4-61" value="" style="endArrow=classic;html=1;rounded=0;" parent="1" edge="1">
          <mxGeometry width="50" height="50" relative="1" as="geometry">
            <mxPoint x="1139.4499999999998" y="-1710" as="sourcePoint" />
            <mxPoint x="1139.9499999999998" y="-1660" as="targetPoint" />
          </mxGeometry>
        </mxCell>
        <mxCell id="2ISQEb1QJit-nx3YyFa4-62" value="อเมริกาโน่ 30กระป๋อง&lt;span style=&quot;white-space:pre&quot;&gt;&#x9;&lt;/span&gt;" style="rounded=0;whiteSpace=wrap;html=1;" parent="1" vertex="1">
          <mxGeometry x="1082.38" y="-1550" width="120" height="60" as="geometry" />
        </mxCell>
        <mxCell id="2ISQEb1QJit-nx3YyFa4-63" value="" style="endArrow=classic;html=1;rounded=0;" parent="1" edge="1">
          <mxGeometry width="50" height="50" relative="1" as="geometry">
            <mxPoint x="1141.9499999999998" y="-1600" as="sourcePoint" />
            <mxPoint x="1142.4499999999998" y="-1550" as="targetPoint" />
          </mxGeometry>
        </mxCell>
        <mxCell id="2ISQEb1QJit-nx3YyFa4-64" value="ลาเต้ หวานเจี๊ยบ 30 กระป๋อง" style="rounded=0;whiteSpace=wrap;html=1;" parent="1" vertex="1">
          <mxGeometry x="1082.38" y="-1440" width="120" height="60" as="geometry" />
        </mxCell>
        <mxCell id="2ISQEb1QJit-nx3YyFa4-65" value="" style="endArrow=classic;html=1;rounded=0;" parent="1" edge="1">
          <mxGeometry width="50" height="50" relative="1" as="geometry">
            <mxPoint x="1140.4500000000003" y="-1490" as="sourcePoint" />
            <mxPoint x="1140.9500000000003" y="-1440" as="targetPoint" />
          </mxGeometry>
        </mxCell>
        <mxCell id="2ISQEb1QJit-nx3YyFa4-66" value="" style="endArrow=classic;html=1;rounded=0;" parent="1" edge="1">
          <mxGeometry width="50" height="50" relative="1" as="geometry">
            <mxPoint x="1141.9499999999998" y="-1380" as="sourcePoint" />
            <mxPoint x="1142.4499999999998" y="-1330" as="targetPoint" />
          </mxGeometry>
        </mxCell>
        <mxCell id="2ISQEb1QJit-nx3YyFa4-67" value="เมล็ดทานตะวัน 25 ถุง" style="rounded=0;whiteSpace=wrap;html=1;" parent="1" vertex="1">
          <mxGeometry x="1084.88" y="-1330" width="120" height="60" as="geometry" />
        </mxCell>
        <mxCell id="2ISQEb1QJit-nx3YyFa4-68" value="ถั่วแปบ 20 ถุง" style="rounded=0;whiteSpace=wrap;html=1;" parent="1" vertex="1">
          <mxGeometry x="1087.38" y="-1220" width="120" height="60" as="geometry" />
        </mxCell>
        <mxCell id="2ISQEb1QJit-nx3YyFa4-69" value="" style="endArrow=classic;html=1;rounded=0;" parent="1" edge="1">
          <mxGeometry width="50" height="50" relative="1" as="geometry">
            <mxPoint x="1141.9499999999998" y="-1270" as="sourcePoint" />
            <mxPoint x="1142.4499999999998" y="-1220" as="targetPoint" />
          </mxGeometry>
        </mxCell>
        <mxCell id="2ISQEb1QJit-nx3YyFa4-71" value="" style="endArrow=classic;html=1;rounded=0;" parent="1" edge="1">
          <mxGeometry width="50" height="50" relative="1" as="geometry">
            <mxPoint x="1141.9499999999998" y="-1160" as="sourcePoint" />
            <mxPoint x="1142.4499999999998" y="-1110" as="targetPoint" />
          </mxGeometry>
        </mxCell>
        <mxCell id="2ISQEb1QJit-nx3YyFa4-100" style="edgeStyle=orthogonalEdgeStyle;rounded=0;orthogonalLoop=1;jettySize=auto;html=1;exitX=0.5;exitY=1;exitDx=0;exitDy=0;entryX=0.5;entryY=0;entryDx=0;entryDy=0;" parent="1" source="2ISQEb1QJit-nx3YyFa4-72" target="xvVvHs3m2Gexg3es9if6-133" edge="1">
          <mxGeometry relative="1" as="geometry" />
        </mxCell>
        <mxCell id="2ISQEb1QJit-nx3YyFa4-72" value="จิ้นส้มหมก 15 ห่อ" style="rounded=0;whiteSpace=wrap;html=1;" parent="1" vertex="1">
          <mxGeometry x="1084.88" y="-1110" width="120" height="60" as="geometry" />
        </mxCell>
        <mxCell id="2ISQEb1QJit-nx3YyFa4-73" style="edgeStyle=orthogonalEdgeStyle;rounded=0;orthogonalLoop=1;jettySize=auto;html=1;exitX=0.5;exitY=1;exitDx=0;exitDy=0;entryX=0.569;entryY=0.047;entryDx=0;entryDy=0;entryPerimeter=0;" parent="1" source="xvVvHs3m2Gexg3es9if6-20" target="2ISQEb1QJit-nx3YyFa4-59" edge="1">
          <mxGeometry relative="1" as="geometry" />
        </mxCell>
        <mxCell id="2ISQEb1QJit-nx3YyFa4-225" value="เงินที่อยู่ในตู้" style="shape=parallelogram;perimeter=parallelogramPerimeter;whiteSpace=wrap;html=1;fixedSize=1;size=20;" parent="1" vertex="1">
          <mxGeometry x="1079" y="-2910" width="140" height="70" as="geometry" />
        </mxCell>
        <mxCell id="2ISQEb1QJit-nx3YyFa4-226" value="" style="endArrow=classic;html=1;rounded=0;" parent="1" edge="1">
          <mxGeometry width="50" height="50" relative="1" as="geometry">
            <mxPoint x="1148.5699999999997" y="-2840" as="sourcePoint" />
            <mxPoint x="1149.0699999999997" y="-2790" as="targetPoint" />
          </mxGeometry>
        </mxCell>
        <mxCell id="2ISQEb1QJit-nx3YyFa4-227" value="1000 บาท = 1 ใบ&lt;span style=&quot;color: rgba(0, 0, 0, 0); font-family: monospace; font-size: 0px; text-align: start; text-wrap-mode: nowrap;&quot;&gt;%3CmxGraphModel%3E%3Croot%3E%3CmxCell%20id%3D%220%22%2F%3E%3CmxCell%20id%3D%221%22%20parent%3D%220%22%2F%3E%3CmxCell%20id%3D%222%22%20value%3D%22%22%20style%3D%22endArrow%3Dclassic%3Bhtml%3D1%3Brounded%3D0%3B%22%20edge%3D%221%22%20parent%3D%221%22%3E%3CmxGeometry%20width%3D%2250%22%20height%3D%2250%22%20relative%3D%221%22%20as%3D%22geometry%22%3E%3CmxPoint%20x%3D%22-400%22%20y%3D%2270%22%20as%3D%22sourcePoint%22%2F%3E%3CmxPoint%20x%3D%22-399.5%22%20y%3D%22120%22%20as%3D%22targetPoint%22%2F%3E%3C%2FmxGeometry%3E%3C%2FmxCell%3E%3C%2Froot%3E%3C%2FmxGraphModel%3E&lt;/span&gt;&lt;span style=&quot;color: rgba(0, 0, 0, 0); font-family: monospace; font-size: 0px; text-align: start; text-wrap-mode: nowrap;&quot;&gt;%3CmxGraphModel%3E%3Croot%3E%3CmxCell%20id%3D%220%22%2F%3E%3CmxCell%20id%3D%221%22%20parent%3D%220%22%2F%3E%3CmxCell%20id%3D%222%22%20value%3D%22%22%20style%3D%22endArrow%3Dclassic%3Bhtml%3D1%3Brounded%3D0%3B%22%20edge%3D%221%22%20parent%3D%221%22%3E%3CmxGeometry%20width%3D%2250%22%20height%3D%2250%22%20relative%3D%221%22%20as%3D%22geometry%22%3E%3CmxPoint%20x%3D%22-400%22%20y%3D%2270%22%20as%3D%22sourcePoint%22%2F%3E%3CmxPoint%20x%3D%22-399.5%22%20y%3D%22120%22%20as%3D%22targetPoint%22%2F%3E%3C%2FmxGeometry%3E%3C%2FmxCell%3E%3C%2Froot%3E%3C%2FmxGraphModel%3E&lt;/span&gt;" style="rounded=0;whiteSpace=wrap;html=1;" parent="1" vertex="1">
          <mxGeometry x="1089" y="-2790" width="120" height="60" as="geometry" />
        </mxCell>
        <mxCell id="2ISQEb1QJit-nx3YyFa4-228" value="500 บาท = 1 ใบ&lt;span style=&quot;color: rgba(0, 0, 0, 0); font-family: monospace; font-size: 0px; text-align: start; text-wrap-mode: nowrap;&quot;&gt;%3CmxGraphModel%3E%3Croot%3E%3CmxCell%20id%3D%220%22%2F%3E%3CmxCell%20id%3D%221%22%20parent%3D%220%22%2F%3E%3CmxCell%20id%3D%222%22%20value%3D%22%22%20style%3D%22endArrow%3Dclassic%3Bhtml%3D1%3Brounded%3D0%3B%22%20edge%3D%221%22%20parent%3D%221%22%3E%3CmxGeometry%20width%3D%2250%22%20height%3D%2250%22%20relative%3D%221%22%20as%3D%22geometry%22%3E%3CmxPoint%20x%3D%22-400%22%20y%3D%2270%22%20as%3D%22sourcePoint%22%2F%3E%3CmxPoint%20x%3D%22-399.5%22%20y%3D%22120%22%20as%3D%22targetPoint%22%2F%3E%3C%2FmxGeometry%3E%3C%2FmxCell%3E%3C%2Froot%3E%3C%2FmxGraphModel%3E&lt;/span&gt;&lt;span style=&quot;color: rgba(0, 0, 0, 0); font-family: monospace; font-size: 0px; text-align: start; text-wrap-mode: nowrap;&quot;&gt;%3CmxGraphModel%3E%3Croot%3E%3CmxCell%20id%3D%220%22%2F%3E%3CmxCell%20id%3D%221%22%20parent%3D%220%22%2F%3E%3CmxCell%20id%3D%222%22%20value%3D%22%22%20style%3D%22endArrow%3Dclassic%3Bhtml%3D1%3Brounded%3D0%3B%22%20edge%3D%221%22%20parent%3D%221%22%3E%3CmxGeometry%20width%3D%2250%22%20height%3D%2250%22%20relative%3D%221%22%20as%3D%22geometry%22%3E%3CmxPoint%20x%3D%22-400%22%20y%3D%2270%22%20as%3D%22sourcePoint%22%2F%3E%3CmxPoint%20x%3D%22-399.5%22%20y%3D%22120%22%20as%3D%22targetPoint%22%2F%3E%3C%2FmxGeometry%3E%3C%2FmxCell%3E%3C%2Froot%3E%3C%2FmxGraphModel%3E&lt;/span&gt;" style="rounded=0;whiteSpace=wrap;html=1;" parent="1" vertex="1">
          <mxGeometry x="1085.5" y="-2680" width="120" height="60" as="geometry" />
        </mxCell>
        <mxCell id="2ISQEb1QJit-nx3YyFa4-229" value="" style="endArrow=classic;html=1;rounded=0;" parent="1" edge="1">
          <mxGeometry width="50" height="50" relative="1" as="geometry">
            <mxPoint x="1151.0699999999997" y="-2730" as="sourcePoint" />
            <mxPoint x="1151.5699999999997" y="-2680" as="targetPoint" />
          </mxGeometry>
        </mxCell>
        <mxCell id="2ISQEb1QJit-nx3YyFa4-230" value="100 บาท = 3 ใบ&lt;span style=&quot;color: rgba(0, 0, 0, 0); font-family: monospace; font-size: 0px; text-align: start; text-wrap-mode: nowrap;&quot;&gt;%3CmxGraphModel%3E%3Croot%3E%3CmxCell%20id%3D%220%22%2F%3E%3CmxCell%20id%3D%221%22%20parent%3D%220%22%2F%3E%3CmxCell%20id%3D%222%22%20value%3D%22%22%20style%3D%22endArrow%3Dclassic%3Bhtml%3D1%3Brounded%3D0%3B%22%20edge%3D%221%22%20parent%3D%221%22%3E%3CmxGeometry%20width%3D%2250%22%20height%3D%2250%22%20relative%3D%221%22%20as%3D%22geometry%22%3E%3CmxPoint%20x%3D%22-400%22%20y%3D%2270%22%20as%3D%22sourcePoint%22%2F%3E%3CmxPoint%20x%3D%22-399.5%22%20y%3D%22120%22%20as%3D%22targetPoint%22%2F%3E%3C%2FmxGeometry%3E%3C%2FmxCell%3E%3C%2Froot%3E%3C%2FmxGraphModel%3E&lt;/span&gt;&lt;span style=&quot;color: rgba(0, 0, 0, 0); font-family: monospace; font-size: 0px; text-align: start; text-wrap-mode: nowrap;&quot;&gt;%3CmxGraphModel%3E%3Croot%3E%3CmxCell%20id%3D%220%22%2F%3E%3CmxCell%20id%3D%221%22%20parent%3D%220%22%2F%3E%3CmxCell%20id%3D%222%22%20value%3D%22%22%20style%3D%22endArrow%3Dclassic%3Bhtml%3D1%3Brounded%3D0%3B%22%20edge%3D%221%22%20parent%3D%221%22%3E%3CmxGeometry%20width%3D%2250%22%20height%3D%2250%22%20relative%3D%221%22%20as%3D%22geometry%22%3E%3CmxPoint%20x%3D%22-400%22%20y%3D%2270%22%20as%3D%22sourcePoint%22%2F%3E%3CmxPoint%20x%3D%22-399.5%22%20y%3D%22120%22%20as%3D%22targetPoint%22%2F%3E%3C%2FmxGeometry%3E%3C%2FmxCell%3E%3C%2Froot%3E%3C%2FmxGraphModel%3E&lt;/span&gt;" style="rounded=0;whiteSpace=wrap;html=1;" parent="1" vertex="1">
          <mxGeometry x="1087.5" y="-2570" width="120" height="60" as="geometry" />
        </mxCell>
        <mxCell id="2ISQEb1QJit-nx3YyFa4-231" value="" style="endArrow=classic;html=1;rounded=0;" parent="1" edge="1">
          <mxGeometry width="50" height="50" relative="1" as="geometry">
            <mxPoint x="1147.0699999999997" y="-2620" as="sourcePoint" />
            <mxPoint x="1147.5699999999997" y="-2570" as="targetPoint" />
          </mxGeometry>
        </mxCell>
        <mxCell id="2ISQEb1QJit-nx3YyFa4-232" value="50 บาท = 8 ใบ&lt;span style=&quot;color: rgba(0, 0, 0, 0); font-family: monospace; font-size: 0px; text-align: start; text-wrap-mode: nowrap;&quot;&gt;%3CmxGraphModel%3E%3Croot%3E%3CmxCell%20id%3D%220%22%2F%3E%3CmxCell%20id%3D%221%22%20parent%3D%220%22%2F%3E%3CmxCell%20id%3D%222%22%20value%3D%22%22%20style%3D%22endArrow%3Dclassic%3Bhtml%3D1%3Brounded%3D0%3B%22%20edge%3D%221%22%20parent%3D%221%22%3E%3CmxGeometry%20width%3D%2250%22%20height%3D%2250%22%20relative%3D%221%22%20as%3D%22geometry%22%3E%3CmxPoint%20x%3D%22-400%22%20y%3D%2270%22%20as%3D%22sourcePoint%22%2F%3E%3CmxPoint%20x%3D%22-399.5%22%20y%3D%22120%22%20as%3D%22targetPoint%22%2F%3E%3C%2FmxGeometry%3E%3C%2FmxCell%3E%3C%2Froot%3E%3C%2FmxGraphModel%3E&lt;/span&gt;&lt;span style=&quot;color: rgba(0, 0, 0, 0); font-family: monospace; font-size: 0px; text-align: start; text-wrap-mode: nowrap;&quot;&gt;%3CmxGraphModel%3E%3Croot%3E%3CmxCell%20id%3D%220%22%2F%3E%3CmxCell%20id%3D%221%22%20parent%3D%220%22%2F%3E%3CmxCell%20id%3D%222%22%20value%3D%22%22%20style%3D%22endArrow%3Dclassic%3Bhtml%3D1%3Brounded%3D0%3B%22%20edge%3D%221%22%20parent%3D%221%22%3E%3CmxGeometry%20width%3D%2250%22%20height%3D%2250%22%20relative%3D%221%22%20as%3D%22geometry%22%3E%3CmxPoint%20x%3D%22-400%22%20y%3D%2270%22%20as%3D%22sourcePoint%22%2F%3E%3CmxPoint%20x%3D%22-399.5%22%20y%3D%22120%22%20as%3D%22targetPoint%22%2F%3E%3C%2FmxGeometry%3E%3C%2FmxCell%3E%3C%2Froot%3E%3C%2FmxGraphModel%3E&lt;/span&gt;" style="rounded=0;whiteSpace=wrap;html=1;" parent="1" vertex="1">
          <mxGeometry x="1084" y="-2460" width="120" height="60" as="geometry" />
        </mxCell>
        <mxCell id="2ISQEb1QJit-nx3YyFa4-233" value="" style="endArrow=classic;html=1;rounded=0;" parent="1" edge="1">
          <mxGeometry width="50" height="50" relative="1" as="geometry">
            <mxPoint x="1147.0700000000002" y="-2510" as="sourcePoint" />
            <mxPoint x="1147.5700000000002" y="-2460" as="targetPoint" />
          </mxGeometry>
        </mxCell>
        <mxCell id="2ISQEb1QJit-nx3YyFa4-234" value="" style="endArrow=classic;html=1;rounded=0;" parent="1" edge="1">
          <mxGeometry width="50" height="50" relative="1" as="geometry">
            <mxPoint x="1145.0699999999997" y="-2400" as="sourcePoint" />
            <mxPoint x="1145.5699999999997" y="-2350" as="targetPoint" />
          </mxGeometry>
        </mxCell>
        <mxCell id="2ISQEb1QJit-nx3YyFa4-235" value="20 บาท = 15 ใบ&lt;span style=&quot;color: rgba(0, 0, 0, 0); font-family: monospace; font-size: 0px; text-align: start; text-wrap-mode: nowrap;&quot;&gt;%3CmxGraphModel%3E%3Croot%3E%3CmxCell%20id%3D%220%22%2F%3E%3CmxCell%20id%3D%221%22%20parent%3D%220%22%2F%3E%3CmxCell%20id%3D%222%22%20value%3D%22%22%20style%3D%22endArrow%3Dclassic%3Bhtml%3D1%3Brounded%3D0%3B%22%20edge%3D%221%22%20parent%3D%221%22%3E%3CmxGeometry%20width%3D%2250%22%20height%3D%2250%22%20relative%3D%221%22%20as%3D%22geometry%22%3E%3CmxPoint%20x%3D%22-400%22%20y%3D%2270%22%20as%3D%22sourcePoint%22%2F%3E%3CmxPoint%20x%3D%22-399.5%22%20y%3D%22120%22%20as%3D%22targetPoint%22%2F%3E%3C%2FmxGeometry%3E%3C%2FmxCell%3E%3C%2Froot%3E%3C%2FmxGraphModel%3E&lt;/span&gt;&lt;span style=&quot;color: rgba(0, 0, 0, 0); font-family: monospace; font-size: 0px; text-align: start; text-wrap-mode: nowrap;&quot;&gt;%3CmxGraphModel%3E%3Croot%3E%3CmxCell%20id%3D%220%22%2F%3E%3CmxCell%20id%3D%221%22%20parent%3D%220%22%2F%3E%3CmxCell%20id%3D%222%22%20value%3D%22%22%20style%3D%22endArrow%3Dclassic%3Bhtml%3D1%3Brounded%3D0%3B%22%20edge%3D%221%22%20parent%3D%221%22%3E%3CmxGeometry%20width%3D%2250%22%20height%3D%2250%22%20relative%3D%221%22%20as%3D%22geometry%22%3E%3CmxPoint%20x%3D%22-400%22%20y%3D%2270%22%20as%3D%22sourcePoint%22%2F%3E%3CmxPoint%20x%3D%22-399.5%22%20y%3D%22120%22%20as%3D%22targetPoint%22%2F%3E%3C%2FmxGeometry%3E%3C%2FmxCell%3E%3C%2Froot%3E%3C%2FmxGraphModel%3E&lt;/span&gt;" style="rounded=0;whiteSpace=wrap;html=1;" parent="1" vertex="1">
          <mxGeometry x="1086.5" y="-2350" width="120" height="60" as="geometry" />
        </mxCell>
        <mxCell id="2ISQEb1QJit-nx3YyFa4-236" value="10 บาท = 200 เหรียญ&lt;span style=&quot;color: rgba(0, 0, 0, 0); font-family: monospace; font-size: 0px; text-align: start; text-wrap-mode: nowrap;&quot;&gt;%3CmxGraphModel%3E%3Croot%3E%3CmxCell%20id%3D%220%22%2F%3E%3CmxCell%20id%3D%221%22%20parent%3D%220%22%2F%3E%3CmxCell%20id%3D%222%22%20value%3D%22%22%20style%3D%22endArrow%3Dclassic%3Bhtml%3D1%3Brounded%3D0%3B%22%20edge%3D%221%22%20parent%3D%221%22%3E%3CmxGeometry%20width%3D%2250%22%20height%3D%2250%22%20relative%3D%221%22%20as%3D%22geometry%22%3E%3CmxPoint%20x%3D%22-400%22%20y%3D%2270%22%20as%3D%22sourcePoint%22%2F%3E%3CmxPoint%20x%3D%22-399.5%22%20y%3D%22120%22%20as%3D%22targetPoint%22%2F%3E%3C%2FmxGeometry%3E%3C%2FmxCell%3E%3C%2Froot%3E%3C%2FmxGraphModel%3E&lt;/span&gt;&lt;span style=&quot;color: rgba(0, 0, 0, 0); font-family: monospace; font-size: 0px; text-align: start; text-wrap-mode: nowrap;&quot;&gt;%3CmxGraphModel%3E%3Croot%3E%3CmxCell%20id%3D%220%22%2F%3E%3CmxCell%20id%3D%221%22%20parent%3D%220%22%2F%3E%3CmxCell%20id%3D%222%22%20value%3D%22%22%20style%3D%22endArrow%3Dclassic%3Bhtml%3D1%3Brounded%3D0%3B%22%20edge%3D%221%22%20parent%3D%221%22%3E%3CmxGeometry%20width%3D%2250%22%20height%3D%2250%22%20relative%3D%221%22%20as%3D%22geometry%22%3E%3CmxPoint%20x%3D%22-400%22%20y%3D%2270%22%20as%3D%22sourcePoint%22%2F%3E%3CmxPoint%20x%3D%22-399.5%22%20y%3D%22120%22%20as%3D%22targetPoint%22%2F%3E%3C%2FmxGeometry%3E%3C%2FmxCell%3E%3C%2Froot%3E%3C%2FmxGraphModel%3E&lt;/span&gt;" style="rounded=0;whiteSpace=wrap;html=1;" parent="1" vertex="1">
          <mxGeometry x="1089" y="-2240" width="120" height="60" as="geometry" />
        </mxCell>
        <mxCell id="2ISQEb1QJit-nx3YyFa4-237" value="" style="endArrow=classic;html=1;rounded=0;" parent="1" edge="1">
          <mxGeometry width="50" height="50" relative="1" as="geometry">
            <mxPoint x="1146.0699999999997" y="-2290" as="sourcePoint" />
            <mxPoint x="1146.5699999999997" y="-2240" as="targetPoint" />
          </mxGeometry>
        </mxCell>
        <mxCell id="2ISQEb1QJit-nx3YyFa4-238" value="5 บาท = 500 เหรียญ&lt;span style=&quot;color: rgba(0, 0, 0, 0); font-family: monospace; font-size: 0px; text-align: start; text-wrap-mode: nowrap;&quot;&gt;%3CmxGraphModel%3E%3Croot%3E%3CmxCell%20id%3D%220%22%2F%3E%3CmxCell%20id%3D%221%22%20parent%3D%220%22%2F%3E%3CmxCell%20id%3D%222%22%20value%3D%22%22%20style%3D%22endArrow%3Dclassic%3Bhtml%3D1%3Brounded%3D0%3B%22%20edge%3D%221%22%20parent%3D%221%22%3E%3CmxGeometry%20width%3D%2250%22%20height%3D%2250%22%20relative%3D%221%22%20as%3D%22geometry%22%3E%3CmxPoint%20x%3D%22-400%22%20y%3D%2270%22%20as%3D%22sourcePoint%22%2F%3E%3CmxPoint%20x%3D%22-399.5%22%20y%3D%22120%22%20as%3D%22targetPoint%22%2F%3E%3C%2FmxGeometry%3E%3C%2FmxCell%3E%3C%2Froot%3E%3C%2FmxGraphModel%3E&lt;/span&gt;&lt;span style=&quot;color: rgba(0, 0, 0, 0); font-family: monospace; font-size: 0px; text-align: start; text-wrap-mode: nowrap;&quot;&gt;%3CmxGraphModel%3E%3Croot%3E%3CmxCell%20id%3D%220%22%2F%3E%3CmxCell%20id%3D%221%22%20parent%3D%220%22%2F%3E%3CmxCell%20id%3D%222%22%20value%3D%22%22%20style%3D%22endArrow%3Dclassic%3Bhtml%3D1%3Brounded%3D0%3B%22%20edge%3D%221%22%20parent%3D%221%22%3E%3CmxGeometry%20width%3D%2250%22%20height%3D%2250%22%20relative%3D%221%22%20as%3D%22geometry%22%3E%3CmxPoint%20x%3D%22-400%22%20y%3D%2270%22%20as%3D%22sourcePoint%22%2F%3E%3CmxPoint%20x%3D%22-399.5%22%20y%3D%22120%22%20as%3D%22targetPoint%22%2F%3E%3C%2FmxGeometry%3E%3C%2FmxCell%3E%3C%2Froot%3E%3C%2FmxGraphModel%3E&lt;/span&gt;" style="rounded=0;whiteSpace=wrap;html=1;" parent="1" vertex="1">
          <mxGeometry x="1091.5" y="-2130" width="120" height="60" as="geometry" />
        </mxCell>
        <mxCell id="2ISQEb1QJit-nx3YyFa4-239" value="" style="endArrow=classic;html=1;rounded=0;" parent="1" edge="1">
          <mxGeometry width="50" height="50" relative="1" as="geometry">
            <mxPoint x="1146.0699999999997" y="-2180" as="sourcePoint" />
            <mxPoint x="1146.5699999999997" y="-2130" as="targetPoint" />
          </mxGeometry>
        </mxCell>
        <mxCell id="2ISQEb1QJit-nx3YyFa4-240" value="" style="endArrow=classic;html=1;rounded=0;" parent="1" edge="1">
          <mxGeometry width="50" height="50" relative="1" as="geometry">
            <mxPoint x="1146.0699999999997" y="-2070" as="sourcePoint" />
            <mxPoint x="1146.5699999999997" y="-2020" as="targetPoint" />
          </mxGeometry>
        </mxCell>
        <mxCell id="2ISQEb1QJit-nx3YyFa4-243" style="edgeStyle=orthogonalEdgeStyle;rounded=0;orthogonalLoop=1;jettySize=auto;html=1;exitX=0.5;exitY=1;exitDx=0;exitDy=0;entryX=0.5;entryY=0;entryDx=0;entryDy=0;" parent="1" source="2ISQEb1QJit-nx3YyFa4-241" target="xvVvHs3m2Gexg3es9if6-20" edge="1">
          <mxGeometry relative="1" as="geometry" />
        </mxCell>
        <mxCell id="2ISQEb1QJit-nx3YyFa4-241" value="1 บาท = 1000 เหรียญ&lt;span style=&quot;color: rgba(0, 0, 0, 0); font-family: monospace; font-size: 0px; text-align: start; text-wrap-mode: nowrap;&quot;&gt;%3CmxGraphModel%3E%3Croot%3E%3CmxCell%20id%3D%220%22%2F%3E%3CmxCell%20id%3D%221%22%20parent%3D%220%22%2F%3E%3CmxCell%20id%3D%222%22%20value%3D%22%22%20style%3D%22endArrow%3Dclassic%3Bhtml%3D1%3Brounded%3D0%3B%22%20edge%3D%221%22%20parent%3D%221%22%3E%3CmxGeometry%20width%3D%2250%22%20height%3D%2250%22%20relative%3D%221%22%20as%3D%22geometry%22%3E%3CmxPoint%20x%3D%22-400%22%20y%3D%2270%22%20as%3D%22sourcePoint%22%2F%3E%3CmxPoint%20x%3D%22-399.5%22%20y%3D%22120%22%20as%3D%22targetPoint%22%2F%3E%3C%2FmxGeometry%3E%3C%2FmxCell%3E%3C%2Froot%3E%3C%2FmxGraphModel%3E&lt;/span&gt;&lt;span style=&quot;color: rgba(0, 0, 0, 0); font-family: monospace; font-size: 0px; text-align: start; text-wrap-mode: nowrap;&quot;&gt;%3CmxGraphModel%3E%3Croot%3E%3CmxCell%20id%3D%220%22%2F%3E%3CmxCell%20id%3D%221%22%20parent%3D%220%22%2F%3E%3CmxCell%20id%3D%222%22%20value%3D%22%22%20style%3D%22endArrow%3Dclassic%3Bhtml%3D1%3Brounded%3D0%3B%22%20edge%3D%221%22%20parent%3D%221%22%3E%3CmxGeometry%20width%3D%2250%22%20height%3D%2250%22%20relative%3D%221%22%20as%3D%22geometry%22%3E%3CmxPoint%20x%3D%22-400%22%20y%3D%2270%22%20as%3D%22sourcePoint%22%2F%3E%3CmxPoint%20x%3D%22-399.5%22%20y%3D%22120%22%20as%3D%22targetPoint%22%2F%3E%3C%2FmxGeometry%3E%3C%2FmxCell%3E%3C%2Froot%3E%3C%2FmxGraphModel%3E&lt;/span&gt;" style="rounded=0;whiteSpace=wrap;html=1;" parent="1" vertex="1">
          <mxGeometry x="1091.5" y="-2020" width="120" height="60" as="geometry" />
        </mxCell>
        <mxCell id="2ISQEb1QJit-nx3YyFa4-244" value="&lt;font face=&quot;Sarabun&quot;&gt;สิ้นสุด&lt;/font&gt;" style="ellipse;whiteSpace=wrap;html=1;" parent="1" vertex="1">
          <mxGeometry x="1095" y="2880" width="130" height="50" as="geometry" />
        </mxCell>
        <mxCell id="2ISQEb1QJit-nx3YyFa4-245" value="คำนวณเงินทอน: L_money = C_money - P_item" style="rounded=0;whiteSpace=wrap;html=1;" parent="1" vertex="1">
          <mxGeometry x="1070" y="1080" width="160" height="40" as="geometry" />
        </mxCell>
        <mxCell id="2ISQEb1QJit-nx3YyFa4-246" value="ตรวจสอบจำนวน&lt;div&gt;ธนบัตร/เหรียญใน&lt;/div&gt;&lt;div&gt;ตู้เพียงพอ?&lt;/div&gt;" style="rhombus;whiteSpace=wrap;html=1;" parent="1" vertex="1">
          <mxGeometry x="1080" y="1975" width="160" height="90" as="geometry" />
        </mxCell>
        <mxCell id="2ISQEb1QJit-nx3YyFa4-247" value="แจ้งเตือน: เงินในตู้ไม่พอ" style="rounded=0;whiteSpace=wrap;html=1;" parent="1" vertex="1">
          <mxGeometry x="1390" y="1910" width="140" height="40" as="geometry" />
        </mxCell>
        <mxCell id="2ISQEb1QJit-nx3YyFa4-248" style="edgeStyle=orthogonalEdgeStyle;rounded=0;orthogonalLoop=1;jettySize=auto;html=1;exitX=0.5;exitY=1;exitDx=0;exitDy=0;entryX=1;entryY=0.5;entryDx=0;entryDy=0;entryPerimeter=0;" parent="1" source="2ISQEb1QJit-nx3YyFa4-249" target="2ISQEb1QJit-nx3YyFa4-298" edge="1">
          <mxGeometry relative="1" as="geometry">
            <mxPoint x="1610" y="2770" as="targetPoint" />
            <Array as="points">
              <mxPoint x="1460" y="2100" />
              <mxPoint x="1801" y="2100" />
              <mxPoint x="1801" y="2790" />
            </Array>
          </mxGeometry>
        </mxCell>
        <mxCell id="2ISQEb1QJit-nx3YyFa4-249" value="ยกเลิกการซื้อและคืนเงิน" style="rounded=0;whiteSpace=wrap;html=1;" parent="1" vertex="1">
          <mxGeometry x="1390" y="2080" width="140" height="40" as="geometry" />
        </mxCell>
        <mxCell id="2ISQEb1QJit-nx3YyFa4-250" value="วนลูปมูลค่าเงินทอน (1000, 500, 100, 50, 20, 10, 5, 1)" style="rounded=0;whiteSpace=wrap;html=1;" parent="1" vertex="1">
          <mxGeometry x="1080" y="2130" width="160" height="40" as="geometry" />
        </mxCell>
        <mxCell id="2ISQEb1QJit-nx3YyFa4-251" value="คำนวณจำนวน: use = L_money ÷ มูลค่า" style="rounded=0;whiteSpace=wrap;html=1;" parent="1" vertex="1">
          <mxGeometry x="1080" y="2220" width="160" height="40" as="geometry" />
        </mxCell>
        <mxCell id="2ISQEb1QJit-nx3YyFa4-252" value="use ≤ จำนวนในตู้?" style="rhombus;whiteSpace=wrap;html=1;" parent="1" vertex="1">
          <mxGeometry x="1080" y="2300" width="160" height="60" as="geometry" />
        </mxCell>
        <mxCell id="2ISQEb1QJit-nx3YyFa4-253" style="edgeStyle=orthogonalEdgeStyle;rounded=0;orthogonalLoop=1;jettySize=auto;html=1;entryX=1;entryY=0.5;entryDx=0;entryDy=0;entryPerimeter=0;" parent="1" target="2ISQEb1QJit-nx3YyFa4-292" edge="1">
          <mxGeometry relative="1" as="geometry">
            <mxPoint x="1480" y="2020" as="targetPoint" />
            <Array as="points">
              <mxPoint x="1450" y="2445" />
              <mxPoint x="1620" y="2445" />
              <mxPoint x="1620" y="2020" />
            </Array>
            <mxPoint x="1450" y="2345" as="sourcePoint" />
          </mxGeometry>
        </mxCell>
        <mxCell id="2ISQEb1QJit-nx3YyFa4-254" value="แจ้งเตือน: ธนบัตร/เหรียญไม่พอ" style="rounded=0;whiteSpace=wrap;html=1;" parent="1" vertex="1">
          <mxGeometry x="1390" y="2310" width="140" height="40" as="geometry" />
        </mxCell>
        <mxCell id="2ISQEb1QJit-nx3YyFa4-255" value="อัพเดต L_money = L_money % มูลค่า (ยกเว้นเหรียญ 1 บาท: use = L_money)" style="rounded=0;whiteSpace=wrap;html=1;" parent="1" vertex="1">
          <mxGeometry x="1070" y="2410" width="180" height="50" as="geometry" />
        </mxCell>
        <mxCell id="2ISQEb1QJit-nx3YyFa4-256" value="อัพเดตจำนวนเงินในตู้ -= use" style="rounded=0;whiteSpace=wrap;html=1;" parent="1" vertex="1">
          <mxGeometry x="1080" y="2500" width="160" height="40" as="geometry" />
        </mxCell>
        <mxCell id="2ISQEb1QJit-nx3YyFa4-257" value="แสดงผลเงินทอน&amp;nbsp;" style="rounded=0;whiteSpace=wrap;html=1;" parent="1" vertex="1">
          <mxGeometry x="1070" y="2580" width="180" height="40" as="geometry" />
        </mxCell>
        <mxCell id="2ISQEb1QJit-nx3YyFa4-258" value="แสดงเงินในตู้ที่เหลือ" style="rounded=0;whiteSpace=wrap;html=1;" parent="1" vertex="1">
          <mxGeometry x="1080" y="2664" width="160" height="40" as="geometry" />
        </mxCell>
        <mxCell id="2ISQEb1QJit-nx3YyFa4-259" style="edgeStyle=orthogonalEdgeStyle;rounded=0;html=1;exitX=0.5;exitY=1;entryX=0.5;entryY=0;" parent="1" edge="1">
          <mxGeometry relative="1" as="geometry">
            <mxPoint x="1159.5" y="560" as="sourcePoint" />
            <mxPoint x="1159.5" y="620" as="targetPoint" />
          </mxGeometry>
        </mxCell>
        <mxCell id="2ISQEb1QJit-nx3YyFa4-260" style="edgeStyle=orthogonalEdgeStyle;rounded=0;html=1;entryX=0.5;entryY=0;" parent="1" target="2ISQEb1QJit-nx3YyFa4-245" edge="1">
          <mxGeometry relative="1" as="geometry">
            <mxPoint x="1150" y="1040" as="sourcePoint" />
          </mxGeometry>
        </mxCell>
        <mxCell id="2ISQEb1QJit-nx3YyFa4-261" value="เท็จ" style="edgeStyle=orthogonalEdgeStyle;rounded=0;html=1;exitX=1;exitY=0.5;entryX=0;entryY=0.5;" parent="1" source="2ISQEb1QJit-nx3YyFa4-246" target="2ISQEb1QJit-nx3YyFa4-247" edge="1">
          <mxGeometry relative="1" as="geometry" />
        </mxCell>
        <mxCell id="2ISQEb1QJit-nx3YyFa4-262" value="จริง" style="edgeStyle=orthogonalEdgeStyle;rounded=0;html=1;exitX=0.5;exitY=1;entryX=0.5;entryY=0;exitDx=0;exitDy=0;" parent="1" source="2ISQEb1QJit-nx3YyFa4-246" target="2ISQEb1QJit-nx3YyFa4-250" edge="1">
          <mxGeometry relative="1" as="geometry">
            <mxPoint x="1180" y="2100" as="sourcePoint" />
          </mxGeometry>
        </mxCell>
        <mxCell id="2ISQEb1QJit-nx3YyFa4-263" style="edgeStyle=orthogonalEdgeStyle;rounded=0;html=1;exitX=0.5;exitY=1;entryX=0.5;entryY=0;" parent="1" source="2ISQEb1QJit-nx3YyFa4-250" target="2ISQEb1QJit-nx3YyFa4-251" edge="1">
          <mxGeometry relative="1" as="geometry" />
        </mxCell>
        <mxCell id="2ISQEb1QJit-nx3YyFa4-264" style="edgeStyle=orthogonalEdgeStyle;rounded=0;html=1;exitX=0.5;exitY=1;entryX=0.5;entryY=0;" parent="1" source="2ISQEb1QJit-nx3YyFa4-251" target="2ISQEb1QJit-nx3YyFa4-252" edge="1">
          <mxGeometry relative="1" as="geometry" />
        </mxCell>
        <mxCell id="2ISQEb1QJit-nx3YyFa4-265" value="เท็จ" style="edgeStyle=orthogonalEdgeStyle;rounded=0;html=1;exitX=1;exitY=0.5;entryX=0;entryY=0.5;" parent="1" source="2ISQEb1QJit-nx3YyFa4-252" target="2ISQEb1QJit-nx3YyFa4-254" edge="1">
          <mxGeometry relative="1" as="geometry" />
        </mxCell>
        <mxCell id="2ISQEb1QJit-nx3YyFa4-266" value="จริง" style="edgeStyle=orthogonalEdgeStyle;rounded=0;html=1;exitX=0.5;exitY=1;entryX=0.5;entryY=0;" parent="1" source="2ISQEb1QJit-nx3YyFa4-252" target="2ISQEb1QJit-nx3YyFa4-255" edge="1">
          <mxGeometry relative="1" as="geometry" />
        </mxCell>
        <mxCell id="2ISQEb1QJit-nx3YyFa4-267" style="edgeStyle=orthogonalEdgeStyle;rounded=0;html=1;exitX=0.5;exitY=1;entryX=0.5;entryY=0;" parent="1" source="2ISQEb1QJit-nx3YyFa4-255" target="2ISQEb1QJit-nx3YyFa4-256" edge="1">
          <mxGeometry relative="1" as="geometry" />
        </mxCell>
        <mxCell id="2ISQEb1QJit-nx3YyFa4-268" style="edgeStyle=orthogonalEdgeStyle;rounded=0;html=1;exitX=0.5;exitY=1;entryX=0.5;entryY=0;" parent="1" source="2ISQEb1QJit-nx3YyFa4-256" target="2ISQEb1QJit-nx3YyFa4-257" edge="1">
          <mxGeometry relative="1" as="geometry" />
        </mxCell>
        <mxCell id="2ISQEb1QJit-nx3YyFa4-269" style="edgeStyle=orthogonalEdgeStyle;rounded=0;html=1;exitX=0.5;exitY=1;entryX=0.5;entryY=0;" parent="1" source="2ISQEb1QJit-nx3YyFa4-257" target="2ISQEb1QJit-nx3YyFa4-258" edge="1">
          <mxGeometry relative="1" as="geometry" />
        </mxCell>
        <mxCell id="2ISQEb1QJit-nx3YyFa4-270" value="B1000 = L_money / 1000&lt;div&gt;L_money = L_money % 1000&lt;/div&gt;" style="whiteSpace=wrap;html=1;" parent="1" vertex="1">
          <mxGeometry x="1060" y="1300" width="200" height="40" as="geometry" />
        </mxCell>
        <mxCell id="2ISQEb1QJit-nx3YyFa4-271" style="edgeStyle=orthogonalEdgeStyle;rounded=0;orthogonalLoop=1;jettySize=auto;html=1;entryX=0.5;entryY=0;entryDx=0;entryDy=0;" parent="1" source="2ISQEb1QJit-nx3YyFa4-272" target="2ISQEb1QJit-nx3YyFa4-274" edge="1">
          <mxGeometry relative="1" as="geometry" />
        </mxCell>
        <mxCell id="2ISQEb1QJit-nx3YyFa4-272" value="B500 = L_money / 500&lt;div&gt;L_money = L_money % 500&lt;/div&gt;" style="whiteSpace=wrap;html=1;" parent="1" vertex="1">
          <mxGeometry x="1060" y="1400" width="200" height="40" as="geometry" />
        </mxCell>
        <mxCell id="2ISQEb1QJit-nx3YyFa4-273" style="edgeStyle=orthogonalEdgeStyle;rounded=0;orthogonalLoop=1;jettySize=auto;html=1;entryX=0.5;entryY=0;entryDx=0;entryDy=0;" parent="1" source="2ISQEb1QJit-nx3YyFa4-274" target="2ISQEb1QJit-nx3YyFa4-276" edge="1">
          <mxGeometry relative="1" as="geometry" />
        </mxCell>
        <mxCell id="2ISQEb1QJit-nx3YyFa4-274" value="B100 = L_money / 100&lt;div&gt;L_money = L_money % 100&lt;/div&gt;" style="whiteSpace=wrap;html=1;" parent="1" vertex="1">
          <mxGeometry x="1060" y="1520" width="200" height="40" as="geometry" />
        </mxCell>
        <mxCell id="2ISQEb1QJit-nx3YyFa4-275" style="edgeStyle=orthogonalEdgeStyle;rounded=0;orthogonalLoop=1;jettySize=auto;html=1;entryX=0.5;entryY=0;entryDx=0;entryDy=0;" parent="1" source="2ISQEb1QJit-nx3YyFa4-276" target="2ISQEb1QJit-nx3YyFa4-278" edge="1">
          <mxGeometry relative="1" as="geometry" />
        </mxCell>
        <mxCell id="2ISQEb1QJit-nx3YyFa4-276" value="B50 = L_money / 50&lt;div&gt;L_money = L_money % 50&lt;/div&gt;" style="whiteSpace=wrap;html=1;" parent="1" vertex="1">
          <mxGeometry x="1060" y="1610" width="200" height="40" as="geometry" />
        </mxCell>
        <mxCell id="2ISQEb1QJit-nx3YyFa4-277" style="edgeStyle=orthogonalEdgeStyle;rounded=0;orthogonalLoop=1;jettySize=auto;html=1;" parent="1" source="2ISQEb1QJit-nx3YyFa4-278" target="2ISQEb1QJit-nx3YyFa4-280" edge="1">
          <mxGeometry relative="1" as="geometry" />
        </mxCell>
        <mxCell id="2ISQEb1QJit-nx3YyFa4-278" value="B20 = L_money / 20&lt;div&gt;L_money = L_money % 20&lt;/div&gt;" style="whiteSpace=wrap;html=1;" parent="1" vertex="1">
          <mxGeometry x="1060" y="1710" width="200" height="40" as="geometry" />
        </mxCell>
        <mxCell id="2ISQEb1QJit-nx3YyFa4-279" style="edgeStyle=orthogonalEdgeStyle;rounded=0;orthogonalLoop=1;jettySize=auto;html=1;entryX=0.5;entryY=0;entryDx=0;entryDy=0;" parent="1" source="2ISQEb1QJit-nx3YyFa4-280" target="2ISQEb1QJit-nx3YyFa4-281" edge="1">
          <mxGeometry relative="1" as="geometry" />
        </mxCell>
        <mxCell id="2ISQEb1QJit-nx3YyFa4-280" value="C10 = L_money / 10&lt;div&gt;L_money = L_money % 10&lt;/div&gt;" style="whiteSpace=wrap;html=1;" parent="1" vertex="1">
          <mxGeometry x="1060" y="1800" width="200" height="40" as="geometry" />
        </mxCell>
        <mxCell id="2ISQEb1QJit-nx3YyFa4-281" value="C5 = L_money / 5&lt;div&gt;C1 = L_money % 5&lt;/div&gt;" style="whiteSpace=wrap;html=1;" parent="1" vertex="1">
          <mxGeometry x="1060" y="1890" width="200" height="40" as="geometry" />
        </mxCell>
        <mxCell id="2ISQEb1QJit-nx3YyFa4-282" style="edgeStyle=orthogonalEdgeStyle;rounded=0;orthogonalLoop=1;jettySize=auto;html=1;exitX=0.5;exitY=1;exitDx=0;exitDy=0;entryX=0.452;entryY=0;entryDx=0;entryDy=0;entryPerimeter=0;" parent="1" source="2ISQEb1QJit-nx3YyFa4-245" edge="1">
          <mxGeometry relative="1" as="geometry">
            <mxPoint x="1150.3999999999999" y="1190" as="targetPoint" />
          </mxGeometry>
        </mxCell>
        <mxCell id="2ISQEb1QJit-nx3YyFa4-283" style="edgeStyle=orthogonalEdgeStyle;rounded=0;orthogonalLoop=1;jettySize=auto;html=1;exitX=0.5;exitY=1;exitDx=0;exitDy=0;" parent="1" edge="1">
          <mxGeometry relative="1" as="geometry">
            <mxPoint x="1149.48" y="1340" as="sourcePoint" />
            <mxPoint x="1149.98" y="1400" as="targetPoint" />
          </mxGeometry>
        </mxCell>
        <mxCell id="2ISQEb1QJit-nx3YyFa4-284" style="edgeStyle=orthogonalEdgeStyle;rounded=0;orthogonalLoop=1;jettySize=auto;html=1;entryX=0.5;entryY=0;entryDx=0;entryDy=0;exitX=0.5;exitY=1;exitDx=0;exitDy=0;" parent="1" source="2ISQEb1QJit-nx3YyFa4-281" edge="1">
          <mxGeometry relative="1" as="geometry">
            <mxPoint x="1159.57" y="1935" as="sourcePoint" />
            <mxPoint x="1159.57" y="1975" as="targetPoint" />
          </mxGeometry>
        </mxCell>
        <mxCell id="2ISQEb1QJit-nx3YyFa4-285" value="&lt;br&gt;change == 0&lt;div&gt;&lt;br&gt;&lt;/div&gt;" style="rounded=0;whiteSpace=wrap;html=1;align=center;" parent="1" vertex="1">
          <mxGeometry x="1070" y="1190" width="160" height="40" as="geometry" />
        </mxCell>
        <mxCell id="2ISQEb1QJit-nx3YyFa4-286" style="edgeStyle=orthogonalEdgeStyle;rounded=0;orthogonalLoop=1;jettySize=auto;html=1;exitX=0.5;exitY=1;exitDx=0;exitDy=0;" parent="1" edge="1">
          <mxGeometry relative="1" as="geometry">
            <mxPoint x="1149.56" y="1230" as="sourcePoint" />
            <mxPoint x="1150" y="1300" as="targetPoint" />
          </mxGeometry>
        </mxCell>
        <mxCell id="2ISQEb1QJit-nx3YyFa4-287" value="รับเงินจากลูกค้า = C_money" style="shape=parallelogram;perimeter=parallelogramPerimeter;whiteSpace=wrap;html=1;fixedSize=1;" parent="1" vertex="1">
          <mxGeometry x="1099.5" y="500" width="120" height="60" as="geometry" />
        </mxCell>
        <mxCell id="2ISQEb1QJit-nx3YyFa4-288" value="รวมราคาสินค้า =&lt;div&gt;&amp;nbsp;P_item&lt;/div&gt;" style="shape=parallelogram;perimeter=parallelogramPerimeter;whiteSpace=wrap;html=1;fixedSize=1;" parent="1" vertex="1">
          <mxGeometry x="1099.5" y="620" width="120" height="50" as="geometry" />
        </mxCell>
        <mxCell id="2ISQEb1QJit-nx3YyFa4-289" value="ไม่ต้องทอน =&lt;div&gt;change&lt;/div&gt;" style="shape=parallelogram;perimeter=parallelogramPerimeter;whiteSpace=wrap;html=1;fixedSize=1;" parent="1" vertex="1">
          <mxGeometry x="1090" y="850" width="120" height="60" as="geometry" />
        </mxCell>
        <mxCell id="2ISQEb1QJit-nx3YyFa4-290" style="edgeStyle=orthogonalEdgeStyle;rounded=0;html=1;exitX=0.5;exitY=1;entryX=0.5;entryY=0;" parent="1" edge="1">
          <mxGeometry relative="1" as="geometry">
            <mxPoint x="1159.13" y="670" as="sourcePoint" />
            <mxPoint x="1159.13" y="730" as="targetPoint" />
          </mxGeometry>
        </mxCell>
        <mxCell id="2ISQEb1QJit-nx3YyFa4-291" style="edgeStyle=orthogonalEdgeStyle;rounded=0;orthogonalLoop=1;jettySize=auto;html=1;entryX=0.5;entryY=0;entryDx=0;entryDy=0;" parent="1" target="2ISQEb1QJit-nx3YyFa4-249" edge="1">
          <mxGeometry relative="1" as="geometry">
            <mxPoint x="1460" y="2030" as="sourcePoint" />
          </mxGeometry>
        </mxCell>
        <mxCell id="2ISQEb1QJit-nx3YyFa4-292" value="" style="strokeWidth=2;html=1;shape=mxgraph.flowchart.start_2;whiteSpace=wrap;" parent="1" vertex="1">
          <mxGeometry x="1450" y="2010" width="20" height="20" as="geometry" />
        </mxCell>
        <mxCell id="2ISQEb1QJit-nx3YyFa4-293" style="edgeStyle=orthogonalEdgeStyle;rounded=0;orthogonalLoop=1;jettySize=auto;html=1;exitX=0.5;exitY=1;exitDx=0;exitDy=0;entryX=0.5;entryY=0;entryDx=0;entryDy=0;entryPerimeter=0;" parent="1" source="2ISQEb1QJit-nx3YyFa4-247" target="2ISQEb1QJit-nx3YyFa4-292" edge="1">
          <mxGeometry relative="1" as="geometry" />
        </mxCell>
        <mxCell id="2ISQEb1QJit-nx3YyFa4-294" value="" style="edgeStyle=orthogonalEdgeStyle;rounded=0;orthogonalLoop=1;jettySize=auto;html=1;" parent="1" source="2ISQEb1QJit-nx3YyFa4-295" target="2ISQEb1QJit-nx3YyFa4-245" edge="1">
          <mxGeometry relative="1" as="geometry" />
        </mxCell>
        <mxCell id="2ISQEb1QJit-nx3YyFa4-295" value="&lt;font&gt;&lt;br&gt;จำนวนธนบัตรต้อง&lt;/font&gt;&lt;div&gt;&lt;font&gt;ใช้ในการทอนเงิน&lt;/font&gt;&lt;/div&gt;&lt;div&gt;&lt;font&gt;= use&lt;br&gt;&lt;/font&gt;&lt;br&gt;&lt;/div&gt;" style="shape=parallelogram;perimeter=parallelogramPerimeter;whiteSpace=wrap;html=1;fixedSize=1;" parent="1" vertex="1">
          <mxGeometry x="1090" y="970" width="120" height="60" as="geometry" />
        </mxCell>
        <mxCell id="2ISQEb1QJit-nx3YyFa4-296" style="edgeStyle=orthogonalEdgeStyle;rounded=0;html=1;exitX=0.5;exitY=1;entryX=0.5;entryY=0;" parent="1" edge="1">
          <mxGeometry relative="1" as="geometry">
            <mxPoint x="1149.73" y="910" as="sourcePoint" />
            <mxPoint x="1149.73" y="970" as="targetPoint" />
          </mxGeometry>
        </mxCell>
        <mxCell id="2ISQEb1QJit-nx3YyFa4-297" style="edgeStyle=orthogonalEdgeStyle;rounded=0;orthogonalLoop=1;jettySize=auto;html=1;entryX=0.5;entryY=0;entryDx=0;entryDy=0;" parent="1" source="2ISQEb1QJit-nx3YyFa4-298" target="2ISQEb1QJit-nx3YyFa4-244" edge="1">
          <mxGeometry relative="1" as="geometry" />
        </mxCell>
        <mxCell id="2ISQEb1QJit-nx3YyFa4-298" value="" style="strokeWidth=2;html=1;shape=mxgraph.flowchart.start_2;whiteSpace=wrap;" parent="1" vertex="1">
          <mxGeometry x="1150" y="2780" width="20" height="20" as="geometry" />
        </mxCell>
        <mxCell id="2ISQEb1QJit-nx3YyFa4-299" style="edgeStyle=orthogonalEdgeStyle;rounded=0;orthogonalLoop=1;jettySize=auto;html=1;exitX=0.5;exitY=1;exitDx=0;exitDy=0;entryX=0.5;entryY=0;entryDx=0;entryDy=0;entryPerimeter=0;" parent="1" source="2ISQEb1QJit-nx3YyFa4-258" target="2ISQEb1QJit-nx3YyFa4-298" edge="1">
          <mxGeometry relative="1" as="geometry" />
        </mxCell>
        <mxCell id="2ISQEb1QJit-nx3YyFa4-300" value="&lt;div&gt;เงินทอน=&lt;/div&gt;&lt;div&gt;&lt;span style=&quot;background-color: transparent; color: light-dark(rgb(0, 0, 0), rgb(255, 255, 255));&quot;&gt;L_money&lt;/span&gt;&lt;/div&gt;" style="shape=parallelogram;perimeter=parallelogramPerimeter;whiteSpace=wrap;html=1;fixedSize=1;" parent="1" vertex="1">
          <mxGeometry x="1099.5" y="730" width="120" height="60" as="geometry" />
        </mxCell>
        <mxCell id="2ISQEb1QJit-nx3YyFa4-301" style="edgeStyle=orthogonalEdgeStyle;rounded=0;html=1;exitX=0.5;exitY=1;entryX=0.5;entryY=0;" parent="1" edge="1">
          <mxGeometry relative="1" as="geometry">
            <mxPoint x="1158.9099999999999" y="790" as="sourcePoint" />
            <mxPoint x="1158.9099999999999" y="850" as="targetPoint" />
          </mxGeometry>
        </mxCell>
        <mxCell id="2ISQEb1QJit-nx3YyFa4-302" style="edgeStyle=orthogonalEdgeStyle;rounded=0;orthogonalLoop=1;jettySize=auto;html=1;exitX=0.5;exitY=1;exitDx=0;exitDy=0;entryX=0.421;entryY=-0.035;entryDx=0;entryDy=0;entryPerimeter=0;" parent="1" source="xvVvHs3m2Gexg3es9if6-426" target="2ISQEb1QJit-nx3YyFa4-287" edge="1">
          <mxGeometry relative="1" as="geometry" />
        </mxCell>
        <mxCell id="2UghleqSg66UlbZ4SKi1-1" value="True" style="text;html=1;align=center;verticalAlign=middle;resizable=0;points=[];autosize=1;strokeColor=none;fillColor=none;" vertex="1" parent="1">
          <mxGeometry x="1364.8" y="-790" width="50" height="30" as="geometry" />
        </mxCell>
        <mxCell id="2UghleqSg66UlbZ4SKi1-2" value="False" style="text;html=1;align=center;verticalAlign=middle;resizable=0;points=[];autosize=1;strokeColor=none;fillColor=none;" vertex="1" parent="1">
          <mxGeometry x="1540" y="-890" width="50" height="30" as="geometry" />
        </mxCell>
        <mxCell id="2UghleqSg66UlbZ4SKi1-3" value="False" style="text;html=1;align=center;verticalAlign=middle;resizable=0;points=[];autosize=1;strokeColor=none;fillColor=none;" vertex="1" parent="1">
          <mxGeometry x="2079.8" y="-780" width="50" height="30" as="geometry" />
        </mxCell>
        <mxCell id="2UghleqSg66UlbZ4SKi1-4" value="False" style="text;html=1;align=center;verticalAlign=middle;resizable=0;points=[];autosize=1;strokeColor=none;fillColor=none;" vertex="1" parent="1">
          <mxGeometry x="2620.79" y="-610" width="50" height="30" as="geometry" />
        </mxCell>
        <mxCell id="2UghleqSg66UlbZ4SKi1-6" value="False" style="text;html=1;align=center;verticalAlign=middle;resizable=0;points=[];autosize=1;strokeColor=none;fillColor=none;" vertex="1" parent="1">
          <mxGeometry x="3220" y="-425" width="50" height="30" as="geometry" />
        </mxCell>
        <mxCell id="2UghleqSg66UlbZ4SKi1-7" value="False" style="text;html=1;align=center;verticalAlign=middle;resizable=0;points=[];autosize=1;strokeColor=none;fillColor=none;" vertex="1" parent="1">
          <mxGeometry x="3210" y="-200" width="50" height="30" as="geometry" />
        </mxCell>
        <mxCell id="2UghleqSg66UlbZ4SKi1-8" value="False" style="text;html=1;align=center;verticalAlign=middle;resizable=0;points=[];autosize=1;strokeColor=none;fillColor=none;" vertex="1" parent="1">
          <mxGeometry x="3030" y="102.5" width="50" height="30" as="geometry" />
        </mxCell>
        <mxCell id="2UghleqSg66UlbZ4SKi1-9" value="False" style="text;html=1;align=center;verticalAlign=middle;resizable=0;points=[];autosize=1;strokeColor=none;fillColor=none;" vertex="1" parent="1">
          <mxGeometry x="3030" y="300" width="50" height="30" as="geometry" />
        </mxCell>
        <mxCell id="2UghleqSg66UlbZ4SKi1-10" value="False" style="text;html=1;align=center;verticalAlign=middle;resizable=0;points=[];autosize=1;strokeColor=none;fillColor=none;" vertex="1" parent="1">
          <mxGeometry x="1364.8" y="-310" width="50" height="30" as="geometry" />
        </mxCell>
        <mxCell id="2UghleqSg66UlbZ4SKi1-11" value="False" style="text;html=1;align=center;verticalAlign=middle;resizable=0;points=[];autosize=1;strokeColor=none;fillColor=none;" vertex="1" parent="1">
          <mxGeometry x="1875.8" y="-242.5" width="50" height="30" as="geometry" />
        </mxCell>
        <mxCell id="2UghleqSg66UlbZ4SKi1-12" value="False" style="text;html=1;align=center;verticalAlign=middle;resizable=0;points=[];autosize=1;strokeColor=none;fillColor=none;" vertex="1" parent="1">
          <mxGeometry x="2405.8" y="-80" width="50" height="30" as="geometry" />
        </mxCell>
        <mxCell id="2UghleqSg66UlbZ4SKi1-13" value="False" style="text;html=1;align=center;verticalAlign=middle;resizable=0;points=[];autosize=1;strokeColor=none;fillColor=none;" vertex="1" parent="1">
          <mxGeometry x="1880" y="-45" width="50" height="30" as="geometry" />
        </mxCell>
        <mxCell id="2UghleqSg66UlbZ4SKi1-14" value="False" style="text;html=1;align=center;verticalAlign=middle;resizable=0;points=[];autosize=1;strokeColor=none;fillColor=none;" vertex="1" parent="1">
          <mxGeometry x="2410" y="120" width="50" height="30" as="geometry" />
        </mxCell>
        <mxCell id="2UghleqSg66UlbZ4SKi1-15" value="False" style="text;html=1;align=center;verticalAlign=middle;resizable=0;points=[];autosize=1;strokeColor=none;fillColor=none;" vertex="1" parent="1">
          <mxGeometry x="2515.8" y="-380" width="50" height="30" as="geometry" />
        </mxCell>
        <mxCell id="2UghleqSg66UlbZ4SKi1-17" value="False" style="text;html=1;align=center;verticalAlign=middle;resizable=0;points=[];autosize=1;strokeColor=none;fillColor=none;" vertex="1" parent="1">
          <mxGeometry x="1479.8" y="-602.5" width="50" height="30" as="geometry" />
        </mxCell>
        <mxCell id="2UghleqSg66UlbZ4SKi1-18" value="False" style="text;html=1;align=center;verticalAlign=middle;resizable=0;points=[];autosize=1;strokeColor=none;fillColor=none;" vertex="1" parent="1">
          <mxGeometry x="1970.81" y="-547.5" width="50" height="30" as="geometry" />
        </mxCell>
        <mxCell id="2UghleqSg66UlbZ4SKi1-19" value="False" style="text;html=1;align=center;verticalAlign=middle;resizable=0;points=[];autosize=1;strokeColor=none;fillColor=none;" vertex="1" parent="1">
          <mxGeometry x="439.8" y="-595" width="50" height="30" as="geometry" />
        </mxCell>
        <mxCell id="2UghleqSg66UlbZ4SKi1-20" value="False" style="text;html=1;align=center;verticalAlign=middle;resizable=0;points=[];autosize=1;strokeColor=none;fillColor=none;" vertex="1" parent="1">
          <mxGeometry x="-113.2" y="-690" width="50" height="30" as="geometry" />
        </mxCell>
        <mxCell id="2UghleqSg66UlbZ4SKi1-21" value="False" style="text;html=1;align=center;verticalAlign=middle;resizable=0;points=[];autosize=1;strokeColor=none;fillColor=none;" vertex="1" parent="1">
          <mxGeometry x="770" y="-332.5" width="50" height="30" as="geometry" />
        </mxCell>
        <mxCell id="2UghleqSg66UlbZ4SKi1-22" value="False" style="text;html=1;align=center;verticalAlign=middle;resizable=0;points=[];autosize=1;strokeColor=none;fillColor=none;" vertex="1" parent="1">
          <mxGeometry x="780" y="-130" width="50" height="30" as="geometry" />
        </mxCell>
        <mxCell id="2UghleqSg66UlbZ4SKi1-23" value="False" style="text;html=1;align=center;verticalAlign=middle;resizable=0;points=[];autosize=1;strokeColor=none;fillColor=none;" vertex="1" parent="1">
          <mxGeometry x="-12.71" y="-410" width="50" height="30" as="geometry" />
        </mxCell>
        <mxCell id="2UghleqSg66UlbZ4SKi1-24" value="False" style="text;html=1;align=center;verticalAlign=middle;resizable=0;points=[];autosize=1;strokeColor=none;fillColor=none;" vertex="1" parent="1">
          <mxGeometry x="301.8" y="-140" width="50" height="30" as="geometry" />
        </mxCell>
        <mxCell id="2UghleqSg66UlbZ4SKi1-25" value="False" style="text;html=1;align=center;verticalAlign=middle;resizable=0;points=[];autosize=1;strokeColor=none;fillColor=none;" vertex="1" parent="1">
          <mxGeometry x="310" y="65" width="50" height="30" as="geometry" />
        </mxCell>
        <mxCell id="2UghleqSg66UlbZ4SKi1-27" value="False" style="text;html=1;align=center;verticalAlign=middle;resizable=0;points=[];autosize=1;strokeColor=none;fillColor=none;" vertex="1" parent="1">
          <mxGeometry x="-550" y="-560" width="50" height="30" as="geometry" />
        </mxCell>
        <mxCell id="2UghleqSg66UlbZ4SKi1-28" value="False" style="text;html=1;align=center;verticalAlign=middle;resizable=0;points=[];autosize=1;strokeColor=none;fillColor=none;" vertex="1" parent="1">
          <mxGeometry x="-510" y="-280" width="50" height="30" as="geometry" />
        </mxCell>
        <mxCell id="2UghleqSg66UlbZ4SKi1-29" value="False" style="text;html=1;align=center;verticalAlign=middle;resizable=0;points=[];autosize=1;strokeColor=none;fillColor=none;" vertex="1" parent="1">
          <mxGeometry x="-200" y="-15" width="50" height="30" as="geometry" />
        </mxCell>
        <mxCell id="2UghleqSg66UlbZ4SKi1-30" value="False" style="text;html=1;align=center;verticalAlign=middle;resizable=0;points=[];autosize=1;strokeColor=none;fillColor=none;" vertex="1" parent="1">
          <mxGeometry x="-200" y="190" width="50" height="30" as="geometry" />
        </mxCell>
        <mxCell id="2UghleqSg66UlbZ4SKi1-32" value="True" style="text;html=1;align=center;verticalAlign=middle;resizable=0;points=[];autosize=1;strokeColor=none;fillColor=none;" vertex="1" parent="1">
          <mxGeometry x="1314.8" y="-615" width="50" height="30" as="geometry" />
        </mxCell>
        <mxCell id="2UghleqSg66UlbZ4SKi1-33" value="True" style="text;html=1;align=center;verticalAlign=middle;resizable=0;points=[];autosize=1;strokeColor=none;fillColor=none;" vertex="1" parent="1">
          <mxGeometry x="1230" y="-210" width="50" height="30" as="geometry" />
        </mxCell>
        <mxCell id="2UghleqSg66UlbZ4SKi1-34" value="True" style="text;html=1;align=center;verticalAlign=middle;resizable=0;points=[];autosize=1;strokeColor=none;fillColor=none;" vertex="1" parent="1">
          <mxGeometry x="1449.8" y="-157.5" width="50" height="30" as="geometry" />
        </mxCell>
        <mxCell id="2UghleqSg66UlbZ4SKi1-35" value="False" style="text;html=1;align=center;verticalAlign=middle;resizable=0;points=[];autosize=1;strokeColor=none;fillColor=none;" vertex="1" parent="1">
          <mxGeometry x="1364.8" y="-100" width="50" height="30" as="geometry" />
        </mxCell>
        <mxCell id="2UghleqSg66UlbZ4SKi1-36" value="True" style="text;html=1;align=center;verticalAlign=middle;resizable=0;points=[];autosize=1;strokeColor=none;fillColor=none;" vertex="1" parent="1">
          <mxGeometry x="1659.8" y="-252.5" width="50" height="30" as="geometry" />
        </mxCell>
        <mxCell id="2UghleqSg66UlbZ4SKi1-37" value="True" style="text;html=1;align=center;verticalAlign=middle;resizable=0;points=[];autosize=1;strokeColor=none;fillColor=none;" vertex="1" parent="1">
          <mxGeometry x="1960.8" y="-95" width="50" height="30" as="geometry" />
        </mxCell>
        <mxCell id="2UghleqSg66UlbZ4SKi1-38" value="True" style="text;html=1;align=center;verticalAlign=middle;resizable=0;points=[];autosize=1;strokeColor=none;fillColor=none;" vertex="1" parent="1">
          <mxGeometry x="1815.79" y="-545" width="50" height="30" as="geometry" />
        </mxCell>
        <mxCell id="2UghleqSg66UlbZ4SKi1-39" value="True" style="text;html=1;align=center;verticalAlign=middle;resizable=0;points=[];autosize=1;strokeColor=none;fillColor=none;" vertex="1" parent="1">
          <mxGeometry x="1875.8" y="-705" width="50" height="30" as="geometry" />
        </mxCell>
        <mxCell id="2UghleqSg66UlbZ4SKi1-40" value="True" style="text;html=1;align=center;verticalAlign=middle;resizable=0;points=[];autosize=1;strokeColor=none;fillColor=none;" vertex="1" parent="1">
          <mxGeometry x="2405.8" y="-535" width="50" height="30" as="geometry" />
        </mxCell>
        <mxCell id="2UghleqSg66UlbZ4SKi1-41" value="True" style="text;html=1;align=center;verticalAlign=middle;resizable=0;points=[];autosize=1;strokeColor=none;fillColor=none;" vertex="1" parent="1">
          <mxGeometry x="2346.92" y="-380" width="50" height="30" as="geometry" />
        </mxCell>
        <mxCell id="2UghleqSg66UlbZ4SKi1-42" value="True" style="text;html=1;align=center;verticalAlign=middle;resizable=0;points=[];autosize=1;strokeColor=none;fillColor=none;" vertex="1" parent="1">
          <mxGeometry x="3030" y="-350" width="50" height="30" as="geometry" />
        </mxCell>
        <mxCell id="2UghleqSg66UlbZ4SKi1-43" value="True" style="text;html=1;align=center;verticalAlign=middle;resizable=0;points=[];autosize=1;strokeColor=none;fillColor=none;" vertex="1" parent="1">
          <mxGeometry x="2966.92" y="-195" width="50" height="30" as="geometry" />
        </mxCell>
        <mxCell id="2UghleqSg66UlbZ4SKi1-44" value="True" style="text;html=1;align=center;verticalAlign=middle;resizable=0;points=[];autosize=1;strokeColor=none;fillColor=none;" vertex="1" parent="1">
          <mxGeometry x="2829.8" y="107.5" width="50" height="30" as="geometry" />
        </mxCell>
        <mxCell id="2UghleqSg66UlbZ4SKi1-45" value="True" style="text;html=1;align=center;verticalAlign=middle;resizable=0;points=[];autosize=1;strokeColor=none;fillColor=none;" vertex="1" parent="1">
          <mxGeometry x="3110.8" y="250" width="50" height="30" as="geometry" />
        </mxCell>
        <mxCell id="2UghleqSg66UlbZ4SKi1-46" value="True" style="text;html=1;align=center;verticalAlign=middle;resizable=0;points=[];autosize=1;strokeColor=none;fillColor=none;" vertex="1" parent="1">
          <mxGeometry x="2490.8" y="67.5" width="50" height="30" as="geometry" />
        </mxCell>
        <mxCell id="2UghleqSg66UlbZ4SKi1-47" value="True" style="text;html=1;align=center;verticalAlign=middle;resizable=0;points=[];autosize=1;strokeColor=none;fillColor=none;" vertex="1" parent="1">
          <mxGeometry x="2210" y="-80" width="50" height="30" as="geometry" />
        </mxCell>
        <mxCell id="2UghleqSg66UlbZ4SKi1-48" value="True" style="text;html=1;align=center;verticalAlign=middle;resizable=0;points=[];autosize=1;strokeColor=none;fillColor=none;" vertex="1" parent="1">
          <mxGeometry x="609.8" y="-595" width="50" height="30" as="geometry" />
        </mxCell>
        <mxCell id="2UghleqSg66UlbZ4SKi1-49" value="True" style="text;html=1;align=center;verticalAlign=middle;resizable=0;points=[];autosize=1;strokeColor=none;fillColor=none;" vertex="1" parent="1">
          <mxGeometry x="147.29" y="-405" width="50" height="30" as="geometry" />
        </mxCell>
        <mxCell id="2UghleqSg66UlbZ4SKi1-50" value="True" style="text;html=1;align=center;verticalAlign=middle;resizable=0;points=[];autosize=1;strokeColor=none;fillColor=none;" vertex="1" parent="1">
          <mxGeometry x="180" y="-50" width="50" height="30" as="geometry" />
        </mxCell>
        <mxCell id="2UghleqSg66UlbZ4SKi1-51" value="True" style="text;html=1;align=center;verticalAlign=middle;resizable=0;points=[];autosize=1;strokeColor=none;fillColor=none;" vertex="1" parent="1">
          <mxGeometry x="-347.71" y="-280" width="50" height="30" as="geometry" />
        </mxCell>
        <mxCell id="2UghleqSg66UlbZ4SKi1-52" value="True" style="text;html=1;align=center;verticalAlign=middle;resizable=0;points=[];autosize=1;strokeColor=none;fillColor=none;" vertex="1" parent="1">
          <mxGeometry x="-320" y="80" width="50" height="30" as="geometry" />
        </mxCell>
        <mxCell id="2UghleqSg66UlbZ4SKi1-53" value="True" style="text;html=1;align=center;verticalAlign=middle;resizable=0;points=[];autosize=1;strokeColor=none;fillColor=none;" vertex="1" parent="1">
          <mxGeometry x="-113.2" y="140" width="50" height="30" as="geometry" />
        </mxCell>
        <mxCell id="2UghleqSg66UlbZ4SKi1-54" value="True" style="text;html=1;align=center;verticalAlign=middle;resizable=0;points=[];autosize=1;strokeColor=none;fillColor=none;" vertex="1" parent="1">
          <mxGeometry x="-402.71" y="-465" width="50" height="30" as="geometry" />
        </mxCell>
        <mxCell id="2UghleqSg66UlbZ4SKi1-55" value="True" style="text;html=1;align=center;verticalAlign=middle;resizable=0;points=[];autosize=1;strokeColor=none;fillColor=none;" vertex="1" parent="1">
          <mxGeometry x="494.8" y="-780" width="50" height="30" as="geometry" />
        </mxCell>
        <mxCell id="2UghleqSg66UlbZ4SKi1-56" value="True" style="text;html=1;align=center;verticalAlign=middle;resizable=0;points=[];autosize=1;strokeColor=none;fillColor=none;" vertex="1" parent="1">
          <mxGeometry x="50" y="-585" width="50" height="30" as="geometry" />
        </mxCell>
        <mxCell id="2UghleqSg66UlbZ4SKi1-57" value="False" style="text;html=1;align=center;verticalAlign=middle;resizable=0;points=[];autosize=1;strokeColor=none;fillColor=none;" vertex="1" parent="1">
          <mxGeometry x="260" y="-880" width="50" height="30" as="geometry" />
        </mxCell>
        <mxCell id="2UghleqSg66UlbZ4SKi1-58" value="False" style="text;html=1;align=center;verticalAlign=middle;resizable=0;points=[];autosize=1;strokeColor=none;fillColor=none;" vertex="1" parent="1">
          <mxGeometry x="890" y="-880" width="50" height="30" as="geometry" />
        </mxCell>
        <mxCell id="2UghleqSg66UlbZ4SKi1-59" value="True" style="text;html=1;align=center;verticalAlign=middle;resizable=0;points=[];autosize=1;strokeColor=none;fillColor=none;" vertex="1" parent="1">
          <mxGeometry x="1240" y="-880" width="50" height="30" as="geometry" />
        </mxCell>
      </root>
    </mxGraphModel>
  </diagram>
</mxfile>
